<?xml version="1.0" encoding="utf-8"?>
<!-- Generator: Adobe Illustrator 24.1.3, SVG Export Plug-In . SVG Version: 6.00 Build 0)  -->
<svg version="1.1" xmlns="http://www.w3.org/2000/svg" xmlns:xlink="http://www.w3.org/1999/xlink" x="0px" y="0px"
	 viewBox="0 0 608 134" style="enable-background:new 0 0 608 134;" xml:space="preserve">
<style type="text/css">
	.st0{fill:#FFFFFF;stroke:#231F20;stroke-miterlimit:10;}
	.st1{fill:#259045;}
	.st2{fill:#993521;}
	.st3{fill:#218B44;}
	.st4{fill:#FFFFFF;}
	.st5{fill:#FCEB05;}
	.st6{fill:#039046;}
	.st7{clip-path:url(#SVGID_2_);fill:#FAE804;}
	.st8{clip-path:url(#SVGID_4_);fill:#FFFFFF;}
	.st9{clip-path:url(#SVGID_6_);fill:#FFFFFF;}
	.st10{clip-path:url(#SVGID_8_);fill:#FFFFFF;}
	.st11{clip-path:url(#SVGID_10_);fill:#FFFFFF;}
	.st12{clip-path:url(#SVGID_12_);fill:#FFFFFF;}
	.st13{fill:none;stroke:#039046;stroke-width:1.7427;stroke-linejoin:round;}
</style>
<g id="Layer_1">
</g>
<g id="Layer_2">
	<circle class="st0" cx="84.2" cy="66.4" r="59.8"/>
	<path class="st1" d="M83.9,114.7c-26.8,0-48.5-21.7-48.5-48.4s21.7-48.4,48.5-48.4s48.5,21.7,48.5,48.4
		C132.4,93,110.7,114.7,83.9,114.7 M83.9,5.7c-33.1,0-60,27.1-60,60.7s26.9,60.7,60,60.7s60-27.1,60-60.7
		C143.9,32.8,117.1,5.7,83.9,5.7"/>
	<path class="st2" d="M99.4,39.8c0.3-0.5,0.6-1,0.8-1.5c4.3,2.4,7.8,5.6,10.3,9.9c0.5-0.3,0.9-0.6,1.4-0.9
		c-2.7-4.4-6.6-7.6-11.1-10.2c0.2-0.4,0.5-0.8,0.7-1.3c4.7,2.7,8.6,6.2,11.5,10.7c0.4-0.3,0.8-0.5,1.3-0.8
		c-3.2-4.7-7.3-8.3-12.2-11.1c0.3-0.5,0.5-0.9,0.8-1.5c5.1,3,9.4,6.8,12.7,11.7c0.6-0.4,1.1-0.7,1.7-1.1c-3.5-5.2-8-9.2-13.5-12.3
		c0.2-0.4,0.5-0.8,0.8-1.3c5.7,3.1,10.5,7.3,14,12.8c0.4-0.2,0.8-0.5,1.2-0.8c-4.1-5.3-8.7-9.9-14.5-13.4c0.2-0.3,0.3-0.6,0.5-0.8
		c0.1-0.3,0.3-0.5,0.5-0.8c15.9,8.8,26.7,28.8,21,50.3c-5.6,21.1-24.5,32.8-41.3,33.2V96.4c8.2-0.7,15.1-3.9,20.6-10
		c3.7-4.1,6.2-8.9,7.2-14.4c1.2-6.4,0.5-12.5-2.1-18.4C109.2,47.7,105,43.1,99.4,39.8"/>
	<path class="st2" d="M66.3,34.8c-4.7,2.9-8.7,6.6-11.9,11c0.1,0.1,0.2,0.2,0.3,0.2c0.3,0.2,0.6,0.4,0.9,0.6c3-4.4,6.7-8,11.3-10.7
		c0.2,0.4,0.5,0.8,0.8,1.3c-4.6,2.4-8,6-11.2,10c0.3,0.2,0.5,0.4,0.8,0.5c0.2,0.2,0.5,0.3,0.8,0.5c2.7-4.1,6.2-7.2,10.4-9.7
		c0.2,0.4,0.5,0.8,0.7,1.2c-11.8,8-17,18.8-14.3,32.9c1.3,6.6,4.8,12.1,9.9,16.5c5.1,4.4,11,6.7,17.7,7.2v14.4
		c-15.8-0.2-34.7-10.9-41-31.8C35,57.2,45.5,36.5,62.1,27.2c0.3,0.6,0.7,1.2,1.1,1.9c-2.8,1.6-5.5,3.4-7.9,5.5
		c-2.5,2.1-4.7,4.4-6.5,7.2c0.5,0.3,0.9,0.6,1.4,1c3.5-5.3,8.1-9.5,13.7-12.5c0.3,0.5,0.5,0.9,0.8,1.4c-5.3,3-9.7,7-13.3,12
		c0.6,0.4,1.1,0.8,1.7,1.2c1.6-2.4,3.5-4.6,5.6-6.5c2.1-1.9,4.3-3.7,6.8-5.1C65.7,33.7,66,34.2,66.3,34.8"/>
	<path class="st2" d="M90.2,25c0-0.7,0.1-1.3,0.1-2c-0.7,0.4-1.3,0.7-2,1.2c-0.2-0.7-0.3-1.2-0.5-1.8c-0.5,0.4-1.1,0.8-1.7,1.3
		c-0.3-0.8-0.5-1.4-0.8-2.3c-0.3,0.7-0.5,1.3-0.7,2c-0.7-0.6-1.4-1.2-2.2-1.8c-0.2,0.6-0.4,1.1-0.5,1.6c-0.7-0.4-1.3-0.7-1.9-1
		c0,0.7-0.1,1.3-0.1,1.9C79,24,78.2,24,77.3,23.9c0.4,0.7,0.8,1.2,1.2,1.8c-0.8,0.5-1.6,0.9-2.5,1.3c0.5,0.3,0.8,0.7,1.2,0.9
		c0.6,0.4,0.6,0.5,0.2,1.1c-0.4,0.6-0.8,1.2-1.2,1.8c0.8-0.1,1.4-0.5,2-0.8c0.7-0.4,1.3-0.1,1.4,0.7c0,0.5,0,0.9,0.1,1.5
		c0.2-0.2,0.4-0.3,0.6-0.5c0.9-0.7,1.5-0.5,1.9,0.5c0.2,0.5,0.5,1,0.8,1.6c0.4-0.6,0.7-1.1,1-1.6c0.7,0.5,1.3,0.9,2,1.4
		c0.1-0.4,0.2-0.7,0.4-1c0.2-0.5,0.4-0.6,0.9-0.4c0.3,0.2,0.6,0.4,0.8,0.6c0.6,0.4,0.9,0.4,1.2-0.3c0.1-0.3,0.2-0.7,0.3-1
		c0.1-0.4,0.3-0.5,0.7-0.3c0.3,0.2,0.7,0.4,1.1,0.6c0-0.5,0-0.8,0-1.2c0-0.3,0.1-0.5,0.4-0.7c0.5-0.2,0.9-0.5,1.5-0.7
		c-0.5-0.4-0.8-0.8-1.3-1.1c0.6-0.4,1-0.8,1.6-1.3c-0.8-0.2-1.6-0.3-2.4-0.5c0.6-0.8,1-1.5,1.6-2.2C91.9,24,91.2,24.8,90.2,25
		 M77.6,25.5c-0.5-0.8-1-1.5-1.6-2.4c1.1,0.1,2.1,0.2,3.3,0.3v-2.3c0.8,0.4,1.5,0.8,2.3,1.2c0.2-0.6,0.4-1.1,0.6-1.8
		c0.7,0.6,1.4,1.2,2.2,1.8c0.2-0.5,0.3-0.9,0.4-1.3c0.1-0.3,0.2-0.3,0.5-0.3c0.2,0,0.5,0,0.6,0.3c0.2,0.5,0.4,1.1,0.6,1.6
		c1-0.7,1.9-1.4,2.9-2.2c-0.2,0.9-0.7,1.7-0.6,2.8c1.2-0.7,2.3-1.3,3.4-2c-0.3,1-1.2,1.6-1.1,2.7c1-0.6,2.1-0.6,3.3-0.4
		c-0.6,0.8-1.1,1.6-1.7,2.4c0.9,0.2,1.8,0.4,2.8,0.6c-0.8,0.6-1.4,1.1-2.1,1.6c0.5,0.4,0.9,0.8,1.5,1.3c-0.6,0.3-1.1,0.6-1.7,0.8
		c-0.6,0.2-0.8,0.5-0.7,1.1c0,0.5,0,0.9,0,1.5c-0.7-0.3-1.3-0.7-1.8-0.9c-0.3,0.6-0.6,1.1-0.9,1.6c-0.1,0.2-0.3,0.3-0.6,0.2
		c-0.6-0.3-1.2-0.6-1.9-0.9c-0.2,0.5-0.4,1.1-0.7,1.7c-0.7-0.5-1.4-1-2.1-1.5c-0.4,0.6-0.8,1.3-1.2,2c-0.2-0.4-0.5-0.8-0.7-1.2
		c-0.3-0.5-0.5-0.9-0.7-1.4c-0.3-0.5-0.4-0.6-0.9-0.2c-0.6,0.5-1.1,0.9-1.7,1.5v-3.3c0,0-0.1-0.1-0.1-0.1c-1.2,0.9-2.5,1.3-4.1,1.3
		c0.8-1,1.5-2.1,2.2-3.1c-0.8-0.6-1.4-1.1-2.2-1.7C75.8,26.4,76.7,25.9,77.6,25.5"/>
	<path class="st3" d="M61.3,55c-0.5,0-0.8,0-1.2-0.1c-0.1,0-0.3-0.1-0.2-0.1c0.1-0.3,0.1-0.7,0.3-0.9c0-0.1,0.4,0,0.6,0
		c0.3,0.1,0.5,0.3,0.7,0.5c0.1,0.1,0.2,0.3,0.2,0.4C61.6,54.9,61.3,55,61.3,55"/>
	<path class="st3" d="M60.2,52.5c-0.1-0.1-0.4-0.3-0.4-0.5c-0.1-0.4,0.2-0.6,0.6-0.5c0.4,0,0.8,0.1,0.8,0.5
		C61.3,52.4,60.7,52.3,60.2,52.5"/>
	<path class="st3" d="M59.3,53.4c-0.1,0.3-0.2,0.5-0.3,0.7c-0.2-0.2-0.5-0.4-0.6-0.7c-0.2-0.7,0-1,0.6-0.8
		C59.1,52.8,59.1,53.1,59.3,53.4"/>
	<path class="st3" d="M60.2,50.5c-0.2,0-0.4,0-0.4-0.4c0-0.3,0.1-0.8,0.5-0.7c0.2,0,0.6,0.3,0.6,0.6C61,50.3,60.7,50.4,60.2,50.5"/>
	<path class="st3" d="M62.7,53.6c-0.7,0.5-0.8,0.5-1.5-0.1c0.2-0.2,0.4-0.4,0.6-0.4C62.3,53,62.6,53.2,62.7,53.6"/>
	<path class="st3" d="M61.8,49c-0.2-0.2-0.4-0.4-0.5-0.6c0.1-0.1,0.3-0.3,0.4-0.3c0.2,0,0.4,0.2,0.6,0.3C62.1,48.6,62,48.8,61.8,49"
		/>
	<path class="st4" d="M85.2,31c0.6-0.1,1.6-0.2,2.5-0.3c1-0.2,1.6-0.8,2.1-1.6c0.3-0.4,0.3-0.9-0.1-1.3c-0.1-0.1-0.2-0.3-0.1-0.3
		c0.2-0.5-0.1-0.7-0.4-0.9s-0.7-0.3-1.1-0.5c-1-0.5-2.1-0.8-3-1.6c-0.2-0.2-0.6-0.3-0.9-0.3c-1.5,0-2.6,0.6-3.4,1.8
		c-1.1,1.5-1.2,3.9,1.4,4.8c0.2,0.1,0.5,0.1,0.8,0.2C83.5,30.9,84.2,31,85.2,31 M90.2,25c1-0.2,1.7-1,2.8-0.8
		c-0.5,0.8-1,1.5-1.6,2.3c0.8,0.1,1.5,0.3,2.4,0.5c-0.6,0.5-1.1,0.8-1.6,1.3c0.4,0.4,0.8,0.7,1.3,1.1c-0.5,0.3-1,0.5-1.5,0.7
		c-0.3,0.1-0.4,0.3-0.4,0.7c0,0.4,0,0.7,0,1.2c-0.4-0.2-0.8-0.4-1.1-0.6c-0.4-0.2-0.6-0.2-0.7,0.2c-0.1,0.3-0.1,0.7-0.3,1
		c-0.3,0.7-0.6,0.7-1.2,0.3c-0.3-0.2-0.6-0.4-0.8-0.6c-0.5-0.3-0.8-0.1-0.9,0.4c-0.1,0.3-0.2,0.6-0.4,1c-0.7-0.5-1.3-0.9-2-1.4
		c-0.3,0.5-0.7,1.1-1.1,1.6c-0.3-0.6-0.6-1.1-0.8-1.6c-0.5-1-1-1.2-1.9-0.5c-0.2,0.1-0.3,0.3-0.6,0.5c0-0.6,0-1-0.1-1.5
		c-0.1-0.8-0.7-1.1-1.4-0.7c-0.6,0.4-1.2,0.8-2,0.8c0.4-0.6,0.8-1.2,1.2-1.8c0.4-0.6,0.4-0.6-0.2-1.1c-0.4-0.3-0.8-0.6-1.2-0.9
		c0.8-0.5,1.6-0.9,2.5-1.3c-0.4-0.6-0.8-1.2-1.2-1.8c0.9,0.1,1.7,0.2,2.5,0.2c0-0.6,0-1.2,0.1-1.9c0.7,0.4,1.3,0.7,1.9,1
		c0.2-0.5,0.3-1,0.5-1.6c0.7,0.6,1.4,1.2,2.2,1.8c0.2-0.7,0.4-1.2,0.7-2c0.3,0.8,0.6,1.5,0.9,2.3c0.6-0.5,1.2-0.9,1.7-1.3
		c0.1,0.6,0.3,1.2,0.5,1.8c0.7-0.4,1.3-0.8,2-1.2C90.3,23.8,90.3,24.4,90.2,25"/>
	<path class="st1" d="M89.1,27.1c0,0,0-0.1,0-0.2c-0.4-0.2-0.7-0.4-1.1-0.5c-1.1-0.5-2.3-0.9-3.3-1.7c-0.2-0.1-0.5-0.2-0.7-0.2
		c-1.6,0-2.7,0.8-3.4,2.1c-0.4,0.8-0.5,1.6-0.2,2.5c0.4,0.9,1.2,1.3,2.1,1.5c1.5,0.2,3,0.3,4.6,0c1-0.2,1.7-0.7,2.3-1.5
		c0.3-0.5,0.2-0.8-0.3-1.1c-0.4-0.3-0.9-0.3-1.4-0.3c-1.1,0.1-2.3,0.2-3.4,0.3c-0.1,0-0.3-0.1-0.4-0.1c0.1-0.1,0.2-0.2,0.3-0.2
		c0.6-0.1,1.2-0.1,1.8-0.2C87.2,27.3,88.2,27.2,89.1,27.1 M85.2,31c-1-0.1-1.7-0.1-2.5-0.2c-0.2,0-0.5-0.1-0.8-0.2
		c-2.6-0.9-2.4-3.3-1.4-4.8c0.8-1.2,2-1.8,3.4-1.8c0.3,0,0.7,0.1,0.9,0.3c0.9,0.8,1.9,1.1,3,1.6c0.4,0.1,0.7,0.3,1.1,0.5
		c0.3,0.2,0.7,0.4,0.4,0.9c0,0.1,0,0.3,0.1,0.3c0.4,0.4,0.4,0.9,0.1,1.3c-0.5,0.8-1.1,1.5-2.1,1.6C86.8,30.9,85.9,31,85.2,31"/>
	<path class="st4" d="M87.7,40.8l-0.4,0.5c-2.3-1.3-4.8-2.2-7.2-2.6l1.2-0.8c2.1,0.5,4.2,1.3,6.3,2.4L87.7,40.8z"/>
	<path class="st4" d="M109.6,58.8c0.3,1.4,0.5,2.1,0.6,3.6l-0.4,0.6l-0.5,0.7c-0.1-1.8-0.4-3.7-0.8-5.4l0.6,0.3L109.6,58.8z"/>
	<path class="st4" d="M102.2,45.1l0.3-0.5c-0.3-0.3-0.6-0.7-0.9-0.9l-1.2,0.2c0.6,0.6,1.2,1.3,1.8,2L102.2,45.1z"/>
	<path class="st4" d="M91.3,43l0.8-0.1c2.3,1.7,4.5,3.9,6.4,6.4c5,6.6,6.9,14.4,6,21.3l-1.2,0.4c1-6.8-0.9-14.5-5.8-21.1
		c-2.1-2.8-4.5-5.1-7.1-6.9L91.3,43z"/>
	<path class="st4" d="M88.3,88.3l0.3,0.6c6.4-4.8,10.6-12.4,10.6-21.1c0-14.5-11.8-26.3-26.3-26.3l-1.5,1c0.5,0,0.9,0,1.4,0
		C86.7,42.4,98,53.7,98,67.7c0,8.1-3.8,15.3-9.8,19.9L88.3,88.3z"/>
	<path class="st5" d="M101.1,83.2c0,0,1.1-1.4,1.1-1.9c0-0.5-0.2-0.8-0.2-0.8s0.3-0.2,0.3-0.4s0-0.6,0.2-0.8
		c0.2-0.2,1.9-0.6,2.2-0.9s0.2-0.3,0.3-0.5c0.1-0.2,0.7-0.7,0.7-0.8c0-0.1,0-0.6,0.2-0.6c0.2,0,0.3,0.1,0.3,0.4c0,0.3-0.1,0.9,0,1
		c0.1,0.2,0.2,0.3,0.2,0.3c0,0-0.2-0.1-0.4,0c-0.1,0.1-0.1,0.4-0.2,0.6c0,0.3-0.4,0.5-0.4,0.5s0.1,0.2,0,0.4
		c-0.1,0.1-0.2,0.2-0.4,0.6c-0.1,0.4-0.3,0.8-0.4,0.9c0,0.1-0.2,0.8-0.4,1.2c-0.2,0.4-0.7,1-0.7,1c0,0-0.1,0.6-0.3,0.8
		c-0.2,0.2-0.9,0.6-1.2,0.6c-0.3,0-0.3,0-0.5-0.2C101.3,84.2,101.1,83.2,101.1,83.2"/>
	<path class="st6" d="M106.2,78.1c-0.1,0.1-0.1,0.4-0.2,0.6c0,0.4-0.4,0.5-0.4,0.5c0,0,0.1,0.2,0,0.4c0,0.1-0.2,0.2-0.4,0.6
		c-0.1,0.4-0.3,0.8-0.4,0.9c0,0.1-0.2,0.8-0.4,1.2c-0.2,0.4-0.7,1-0.7,1c0,0-0.1,0.6-0.3,0.8c-0.2,0.2-0.9,0.6-1.2,0.6
		c-0.3,0-0.3,0-0.5-0.2c-0.3-0.3-0.6-1.4-0.6-1.4s1.2-1.6,1.2-2.1c0-0.5-0.1-0.8-0.1-0.8s0.2-0.1,0.2-0.3c0-0.1,0-0.6,0.2-0.8
		c0.2-0.2,1.9-0.6,2.2-0.9c0.3-0.3,0.2-0.3,0.3-0.5c0.1-0.2,0.7-0.7,0.7-0.8c0-0.1,0-0.6,0.2-0.6c0.2,0,0.3,0.1,0.3,0.4
		s-0.1,0.9,0,1c0.1,0.2,0.2,0.3,0.2,0.3C106.5,78.2,106.3,78,106.2,78.1 M106.6,77.9c-0.1-0.1,0-0.8,0-1.1c0-0.3-0.4-0.7-0.6-0.7
		c-0.1,0-0.2,0.6-0.2,0.6c0,0.1-0.5,0.6-0.7,0.8c-0.1,0.2,0,0.2-0.4,0.6c-0.4,0.3-2.1,0.7-2.3,0.9c-0.2,0.2-0.2,0.7-0.2,0.8
		c0,0.1-0.3,0.4-0.3,0.4s0.2,0.4,0.2,0.9c0,0.6-1.2,2-1.2,2s0.1,1.2,0.4,1.6c0.2,0.2,0.6,0.4,0.9,0.4c0.3,0,1.1-0.4,1.3-0.6
		c0.2-0.2,0.3-0.8,0.3-0.8c0,0,0.5-0.6,0.8-1.1c0.2-0.4,0.4-1.1,0.4-1.2c0-0.1,0.2-0.6,0.4-1c0.2-0.4,0.3-0.5,0.4-0.6
		c0.1-0.1,0-0.3,0-0.4c0,0,0.3-0.2,0.4-0.5c0-0.2,0-0.4,0.1-0.5c0.1-0.1,0.4,0.1,0.5,0C106.9,78.3,106.7,78,106.6,77.9"/>
	<g>
		<g>
			<defs>
				<path id="SVGID_1_" d="M79.9,38.7c-1.4,0.9-2.6,1.2-3,0.9c-0.4-0.2-0.8-0.8-1-0.5s-0.7,0.9-1.1,0.6c-0.4-0.3-1-0.6-1,0.3
					c0,0.9-0.6,1.6-1.5,1.9c-0.9,0.3-1,0.8-1.8,2.1c-0.8,1.2-1.7,1.1-3.3,1.2c-1.6,0.1-1.7,0.9-1.7,0.9s-0.5,2.3-1,3
					c-0.5,0.7-1.7,0.1-1.7,0.1s0.7,0.6,1.1,1.6c0.4,1,0,1.5,0,1.5l0.3,0.5c0.3,0.5,0.3,3.4,0.3,3.4s0.7,0.6,1.9,2
					c1.2,1.4,1.4,2.4,1.5,2.6c0.1,0.2,2.9,4.1,2.9,4.1s0.7-0.8,1.1-0.9c0.3-0.1,0.9,0.4,0.9,0.4c0.1,0,2.7-1.1,2.9-0.9
					c0.5,0.6,3,2.2,3.8,2c0.8-0.1,2.4-1.8,3.6-1.4c1.2,0.4,0.8,1.8,0.8,1.8s0.7-0.4,1-0.5c0.3,0,0.2,0.6,0.5,0.7
					c0.2,0.1,1,0.9,1.3,1.4c0.3,0.5-0.9,1.6-1.1,2c-0.1,0.5,1,1.8,1.2,2.4c0.2,0.6,0,0.8,0,0.8s-1,1.4-1.8,2.6
					c-0.8,1.2-1.1,1.5-1.1,1.5c-0.1,1.6,1,2.9,1.4,3.2c0.4,0.3,1.8,1.8,2.1,3.1c0.2,1.3,0.7,1.9,1,2.8c0.3,0.9,0,2.2,0,2.2
					s0.2,0.6,0.9,1c0.7,0.4,1.4-0.7,2.1-1.2c0.8-0.6,1.6-0.7,2.5-1.2c0.9-0.5,1.3-1.4,1.4-1.8c0.1-0.4,1.6-1.5,2.9-2.2
					c1.3-0.8,1.8-2,1.8-2s-0.2-2.4,0.1-3.3c0.2-0.9,2.3-3.1,2.9-3.9c0.6-0.8,0.2-2.3,0.2-2.3s1-0.8,2.1-1.5c1.1-0.7,1.1-1.5,1.8-3.5
					s3-2.9,3.6-3.3c0.6-0.4,1.5-2,1.3-2.4c-0.2-0.4-0.3-1.2-0.2-1.8c0.1-0.6-0.5-0.6-0.5-0.6s-3,0-3.6-0.6c-0.6-0.5-0.5-1.6-0.5-1.6
					l-4.4-6.2l0.1-2.6c0,0-0.3-0.3-0.7-0.6c-0.4-0.3,0.1-1,0.2-1.7c0.1-0.7,0-1.6-0.8-1.6c-0.8,0.1-1.9,0.1-2.8-0.3
					c-1-0.5-1.8-2.4-1.8-2.4l-1.7,0.9c0,0,0,0.3,0,1.2c-0.1,0.8-0.4,1-1.6,0.4s-1.4-0.5-2.1-0.1c-0.8,0.4-1.8-0.4-2.9-0.9
					c-1.1-0.5-1.9,0.1-1.9,0.1s0.6-0.7,0.7-1.4c0.1-0.7-0.3-1-0.3-1s-2-1-3.3-2c-0.5-0.4-0.9-0.5-1.4-0.5
					C81.6,37.5,80.8,38.1,79.9,38.7"/>
			</defs>
			<clipPath id="SVGID_2_">
				<use xlink:href="#SVGID_1_"  style="overflow:visible;"/>
			</clipPath>
			<path class="st7" d="M127.9,65.8c0,23.3-21.4,42.1-47.9,42.1S32.1,89.1,32.1,65.8S53.5,23.7,80,23.7S127.9,42.6,127.9,65.8"/>
		</g>
		<g>
			<defs>
				<path id="SVGID_3_" d="M79.9,38.7c-1.4,0.9-2.6,1.2-3,0.9c-0.4-0.2-0.8-0.8-1-0.5s-0.7,0.9-1.1,0.6c-0.4-0.3-1-0.6-1,0.3
					c0,0.9-0.6,1.6-1.5,1.9c-0.9,0.3-1,0.8-1.8,2.1c-0.8,1.2-1.7,1.1-3.3,1.2c-1.6,0.1-1.7,0.9-1.7,0.9s-0.5,2.3-1,3
					c-0.5,0.7-1.7,0.1-1.7,0.1s0.7,0.6,1.1,1.6c0.4,1,0,1.5,0,1.5l0.3,0.5c0.3,0.5,0.3,3.4,0.3,3.4s0.7,0.6,1.9,2
					c1.2,1.4,1.4,2.4,1.5,2.6c0.1,0.2,2.9,4.1,2.9,4.1s0.7-0.8,1.1-0.9c0.3-0.1,0.9,0.4,0.9,0.4c0.1,0,2.7-1.1,2.9-0.9
					c0.5,0.6,3,2.2,3.8,2c0.8-0.1,2.4-1.8,3.6-1.4c1.2,0.4,0.8,1.8,0.8,1.8s0.7-0.4,1-0.5c0.3,0,0.2,0.6,0.5,0.7
					c0.2,0.1,1,0.9,1.3,1.4c0.3,0.5-0.9,1.6-1.1,2c-0.1,0.5,1,1.8,1.2,2.4c0.2,0.6,0,0.8,0,0.8s-1,1.4-1.8,2.6
					c-0.8,1.2-1.1,1.5-1.1,1.5c-0.1,1.6,1,2.9,1.4,3.2c0.4,0.3,1.8,1.8,2.1,3.1c0.2,1.3,0.7,1.9,1,2.8c0.3,0.9,0,2.2,0,2.2
					s0.2,0.6,0.9,1c0.7,0.4,1.4-0.7,2.1-1.2c0.8-0.6,1.6-0.7,2.5-1.2c0.9-0.5,1.3-1.4,1.4-1.8c0.1-0.4,1.6-1.5,2.9-2.2
					c1.3-0.8,1.8-2,1.8-2s-0.2-2.4,0.1-3.3c0.2-0.9,2.3-3.1,2.9-3.9c0.6-0.8,0.2-2.3,0.2-2.3s1-0.8,2.1-1.5c1.1-0.7,1.1-1.5,1.8-3.5
					s3-2.9,3.6-3.3c0.6-0.4,1.5-2,1.3-2.4c-0.2-0.4-0.3-1.2-0.2-1.8c0.1-0.6-0.5-0.6-0.5-0.6s-3,0-3.6-0.6c-0.6-0.5-0.5-1.6-0.5-1.6
					l-4.4-6.2l0.1-2.6c0,0-0.3-0.3-0.7-0.6c-0.4-0.3,0.1-1,0.2-1.7c0.1-0.7,0-1.6-0.8-1.6c-0.8,0.1-1.9,0.1-2.8-0.3
					c-1-0.5-1.8-2.4-1.8-2.4l-1.7,0.9c0,0,0,0.3,0,1.2c-0.1,0.8-0.4,1-1.6,0.4s-1.4-0.5-2.1-0.1c-0.8,0.4-1.8-0.4-2.9-0.9
					c-1.1-0.5-1.9,0.1-1.9,0.1s0.6-0.7,0.7-1.4c0.1-0.7-0.3-1-0.3-1s-2-1-3.3-2c-0.5-0.4-0.9-0.5-1.4-0.5
					C81.6,37.5,80.8,38.1,79.9,38.7"/>
			</defs>
			<clipPath id="SVGID_4_">
				<use xlink:href="#SVGID_3_"  style="overflow:visible;"/>
			</clipPath>
			<path class="st8" d="M79.1,48c-8,0-14.5,6.5-14.5,14.5S71.1,77,79.1,77s14.5-6.5,14.5-14.5C93.6,54.5,87.1,48,79.1,48 M79.1,78.1
				c-4.2,0-8.1-1.6-11.1-4.6c-3-3-4.6-6.9-4.6-11.1s1.6-8.1,4.6-11.1c3-3,6.9-4.6,11.1-4.6c4.2,0,8.1,1.6,11.1,4.6
				c3,3,4.6,6.9,4.6,11.1s-1.6,8.1-4.6,11.1S83.3,78.1,79.1,78.1"/>
		</g>
		<g>
			<defs>
				<path id="SVGID_5_" d="M79.9,38.7c-1.4,0.9-2.6,1.2-3,0.9c-0.4-0.2-0.8-0.8-1-0.5s-0.7,0.9-1.1,0.6c-0.4-0.3-1-0.6-1,0.3
					c0,0.9-0.6,1.6-1.5,1.9c-0.9,0.3-1,0.8-1.8,2.1c-0.8,1.2-1.7,1.1-3.3,1.2c-1.6,0.1-1.7,0.9-1.7,0.9s-0.5,2.3-1,3
					c-0.5,0.7-1.7,0.1-1.7,0.1s0.7,0.6,1.1,1.6c0.4,1,0,1.5,0,1.5l0.3,0.5c0.3,0.5,0.3,3.4,0.3,3.4s0.7,0.6,1.9,2
					c1.2,1.4,1.4,2.4,1.5,2.6c0.1,0.2,2.9,4.1,2.9,4.1s0.7-0.8,1.1-0.9c0.3-0.1,0.9,0.4,0.9,0.4c0.1,0,2.7-1.1,2.9-0.9
					c0.5,0.6,3,2.2,3.8,2c0.8-0.1,2.4-1.8,3.6-1.4c1.2,0.4,0.8,1.8,0.8,1.8s0.7-0.4,1-0.5c0.3,0,0.2,0.6,0.5,0.7
					c0.2,0.1,1,0.9,1.3,1.4c0.3,0.5-0.9,1.6-1.1,2c-0.1,0.5,1,1.8,1.2,2.4c0.2,0.6,0,0.8,0,0.8s-1,1.4-1.8,2.6
					c-0.8,1.2-1.1,1.5-1.1,1.5c-0.1,1.6,1,2.9,1.4,3.2c0.4,0.3,1.8,1.8,2.1,3.1c0.2,1.3,0.7,1.9,1,2.8c0.3,0.9,0,2.2,0,2.2
					s0.2,0.6,0.9,1c0.7,0.4,1.4-0.7,2.1-1.2c0.8-0.6,1.6-0.7,2.5-1.2c0.9-0.5,1.3-1.4,1.4-1.8c0.1-0.4,1.6-1.5,2.9-2.2
					c1.3-0.8,1.8-2,1.8-2s-0.2-2.4,0.1-3.3c0.2-0.9,2.3-3.1,2.9-3.9c0.6-0.8,0.2-2.3,0.2-2.3s1-0.8,2.1-1.5c1.1-0.7,1.1-1.5,1.8-3.5
					s3-2.9,3.6-3.3c0.6-0.4,1.5-2,1.3-2.4c-0.2-0.4-0.3-1.2-0.2-1.8c0.1-0.6-0.5-0.6-0.5-0.6s-3,0-3.6-0.6c-0.6-0.5-0.5-1.6-0.5-1.6
					l-4.4-6.2l0.1-2.6c0,0-0.3-0.3-0.7-0.6c-0.4-0.3,0.1-1,0.2-1.7c0.1-0.7,0-1.6-0.8-1.6c-0.8,0.1-1.9,0.1-2.8-0.3
					c-1-0.5-1.8-2.4-1.8-2.4l-1.7,0.9c0,0,0,0.3,0,1.2c-0.1,0.8-0.4,1-1.6,0.4s-1.4-0.5-2.1-0.1c-0.8,0.4-1.8-0.4-2.9-0.9
					c-1.1-0.5-1.9,0.1-1.9,0.1s0.6-0.7,0.7-1.4c0.1-0.7-0.3-1-0.3-1s-2-1-3.3-2c-0.5-0.4-0.9-0.5-1.4-0.5
					C81.6,37.5,80.8,38.1,79.9,38.7"/>
			</defs>
			<clipPath id="SVGID_6_">
				<use xlink:href="#SVGID_5_"  style="overflow:visible;"/>
			</clipPath>
			<path class="st9" d="M79.4,43.4c-10.5,0-19,8.5-19,19s8.5,19,19,19c10.5,0,19-8.5,19-19C98.4,52,89.8,43.4,79.4,43.4 M79.4,82.6
				c-2.7,0-5.4-0.5-7.8-1.6c-2.4-1-4.6-2.5-6.4-4.3c-1.8-1.8-3.3-4-4.3-6.4c-1-2.5-1.6-5.1-1.6-7.8c0-2.7,0.5-5.4,1.6-7.8
				c1-2.4,2.5-4.6,4.3-6.4c1.8-1.8,4-3.3,6.4-4.3c2.5-1,5.1-1.6,7.8-1.6c2.7,0,5.4,0.5,7.8,1.6c2.4,1,4.6,2.5,6.4,4.3
				c1.8,1.8,3.3,4,4.3,6.4c1,2.5,1.6,5.1,1.6,7.8c0,2.7-0.5,5.4-1.6,7.8c-1,2.4-2.5,4.6-4.3,6.4c-1.8,1.8-4,3.3-6.4,4.3
				C84.7,82.1,82.1,82.6,79.4,82.6"/>
		</g>
		<g>
			<defs>
				<path id="SVGID_7_" d="M79.9,38.7c-1.4,0.9-2.6,1.2-3,0.9c-0.4-0.2-0.8-0.8-1-0.5s-0.7,0.9-1.1,0.6c-0.4-0.3-1-0.6-1,0.3
					c0,0.9-0.6,1.6-1.5,1.9c-0.9,0.3-1,0.8-1.8,2.1c-0.8,1.2-1.7,1.1-3.3,1.2c-1.6,0.1-1.7,0.9-1.7,0.9s-0.5,2.3-1,3
					c-0.5,0.7-1.7,0.1-1.7,0.1s0.7,0.6,1.1,1.6c0.4,1,0,1.5,0,1.5l0.3,0.5c0.3,0.5,0.3,3.4,0.3,3.4s0.7,0.6,1.9,2
					c1.2,1.4,1.4,2.4,1.5,2.6c0.1,0.2,2.9,4.1,2.9,4.1s0.7-0.8,1.1-0.9c0.3-0.1,0.9,0.4,0.9,0.4c0.1,0,2.7-1.1,2.9-0.9
					c0.5,0.6,3,2.2,3.8,2c0.8-0.1,2.4-1.8,3.6-1.4c1.2,0.4,0.8,1.8,0.8,1.8s0.7-0.4,1-0.5c0.3,0,0.2,0.6,0.5,0.7
					c0.2,0.1,1,0.9,1.3,1.4c0.3,0.5-0.9,1.6-1.1,2c-0.1,0.5,1,1.8,1.2,2.4c0.2,0.6,0,0.8,0,0.8s-1,1.4-1.8,2.6
					c-0.8,1.2-1.1,1.5-1.1,1.5c-0.1,1.6,1,2.9,1.4,3.2c0.4,0.3,1.8,1.8,2.1,3.1c0.2,1.3,0.7,1.9,1,2.8c0.3,0.9,0,2.2,0,2.2
					s0.2,0.6,0.9,1c0.7,0.4,1.4-0.7,2.1-1.2c0.8-0.6,1.6-0.7,2.5-1.2c0.9-0.5,1.3-1.4,1.4-1.8c0.1-0.4,1.6-1.5,2.9-2.2
					c1.3-0.8,1.8-2,1.8-2s-0.2-2.4,0.1-3.3c0.2-0.9,2.3-3.1,2.9-3.9c0.6-0.8,0.2-2.3,0.2-2.3s1-0.8,2.1-1.5c1.1-0.7,1.1-1.5,1.8-3.5
					s3-2.9,3.6-3.3c0.6-0.4,1.5-2,1.3-2.4c-0.2-0.4-0.3-1.2-0.2-1.8c0.1-0.6-0.5-0.6-0.5-0.6s-3,0-3.6-0.6c-0.6-0.5-0.5-1.6-0.5-1.6
					l-4.4-6.2l0.1-2.6c0,0-0.3-0.3-0.7-0.6c-0.4-0.3,0.1-1,0.2-1.7c0.1-0.7,0-1.6-0.8-1.6c-0.8,0.1-1.9,0.1-2.8-0.3
					c-1-0.5-1.8-2.4-1.8-2.4l-1.7,0.9c0,0,0,0.3,0,1.2c-0.1,0.8-0.4,1-1.6,0.4s-1.4-0.5-2.1-0.1c-0.8,0.4-1.8-0.4-2.9-0.9
					c-1.1-0.5-1.9,0.1-1.9,0.1s0.6-0.7,0.7-1.4c0.1-0.7-0.3-1-0.3-1s-2-1-3.3-2c-0.5-0.4-0.9-0.5-1.4-0.5
					C81.6,37.5,80.8,38.1,79.9,38.7"/>
			</defs>
			<clipPath id="SVGID_8_">
				<use xlink:href="#SVGID_7_"  style="overflow:visible;"/>
			</clipPath>
			<path class="st10" d="M79.5,39.6c-12.6,0-22.9,10.3-22.9,22.9s10.3,22.9,22.9,22.9s22.9-10.3,22.9-22.9S92.1,39.6,79.5,39.6
				 M79.5,86.5c-3.3,0-6.4-0.6-9.4-1.9c-2.9-1.2-5.4-2.9-7.6-5.1c-2.2-2.2-3.9-4.8-5.1-7.6c-1.3-3-1.9-6.1-1.9-9.4s0.6-6.4,1.9-9.4
				c1.2-2.9,2.9-5.4,5.1-7.6c2.2-2.2,4.8-3.9,7.6-5.1c3-1.3,6.1-1.9,9.4-1.9c3.3,0,6.4,0.6,9.4,1.9c2.9,1.2,5.4,2.9,7.6,5.1
				c2.2,2.2,3.9,4.8,5.1,7.6c1.3,3,1.9,6.1,1.9,9.4s-0.6,6.4-1.9,9.4c-1.2,2.9-2.9,5.4-5.1,7.6c-2.2,2.2-4.8,3.9-7.6,5.1
				C85.8,85.9,82.7,86.5,79.5,86.5"/>
		</g>
		<g>
			<defs>
				<path id="SVGID_9_" d="M79.9,38.7c-1.4,0.9-2.6,1.2-3,0.9c-0.4-0.2-0.8-0.8-1-0.5s-0.7,0.9-1.1,0.6c-0.4-0.3-1-0.6-1,0.3
					c0,0.9-0.6,1.6-1.5,1.9c-0.9,0.3-1,0.8-1.8,2.1c-0.8,1.2-1.7,1.1-3.3,1.2c-1.6,0.1-1.7,0.9-1.7,0.9s-0.5,2.3-1,3
					c-0.5,0.7-1.7,0.1-1.7,0.1s0.7,0.6,1.1,1.6c0.4,1,0,1.5,0,1.5l0.3,0.5c0.3,0.5,0.3,3.4,0.3,3.4s0.7,0.6,1.9,2
					c1.2,1.4,1.4,2.4,1.5,2.6c0.1,0.2,2.9,4.1,2.9,4.1s0.7-0.8,1.1-0.9c0.3-0.1,0.9,0.4,0.9,0.4c0.1,0,2.7-1.1,2.9-0.9
					c0.5,0.6,3,2.2,3.8,2c0.8-0.1,2.4-1.8,3.6-1.4c1.2,0.4,0.8,1.8,0.8,1.8s0.7-0.4,1-0.5c0.3,0,0.2,0.6,0.5,0.7
					c0.2,0.1,1,0.9,1.3,1.4c0.3,0.5-0.9,1.6-1.1,2c-0.1,0.5,1,1.8,1.2,2.4c0.2,0.6,0,0.8,0,0.8s-1,1.4-1.8,2.6
					c-0.8,1.2-1.1,1.5-1.1,1.5c-0.1,1.6,1,2.9,1.4,3.2c0.4,0.3,1.8,1.8,2.1,3.1c0.2,1.3,0.7,1.9,1,2.8c0.3,0.9,0,2.2,0,2.2
					s0.2,0.6,0.9,1c0.7,0.4,1.4-0.7,2.1-1.2c0.8-0.6,1.6-0.7,2.5-1.2c0.9-0.5,1.3-1.4,1.4-1.8c0.1-0.4,1.6-1.5,2.9-2.2
					c1.3-0.8,1.8-2,1.8-2s-0.2-2.4,0.1-3.3c0.2-0.9,2.3-3.1,2.9-3.9c0.6-0.8,0.2-2.3,0.2-2.3s1-0.8,2.1-1.5c1.1-0.7,1.1-1.5,1.8-3.5
					s3-2.9,3.6-3.3c0.6-0.4,1.5-2,1.3-2.4c-0.2-0.4-0.3-1.2-0.2-1.8c0.1-0.6-0.5-0.6-0.5-0.6s-3,0-3.6-0.6c-0.6-0.5-0.5-1.6-0.5-1.6
					l-4.4-6.2l0.1-2.6c0,0-0.3-0.3-0.7-0.6c-0.4-0.3,0.1-1,0.2-1.7c0.1-0.7,0-1.6-0.8-1.6c-0.8,0.1-1.9,0.1-2.8-0.3
					c-1-0.5-1.8-2.4-1.8-2.4l-1.7,0.9c0,0,0,0.3,0,1.2c-0.1,0.8-0.4,1-1.6,0.4s-1.4-0.5-2.1-0.1c-0.8,0.4-1.8-0.4-2.9-0.9
					c-1.1-0.5-1.9,0.1-1.9,0.1s0.6-0.7,0.7-1.4c0.1-0.7-0.3-1-0.3-1s-2-1-3.3-2c-0.5-0.4-0.9-0.5-1.4-0.5
					C81.6,37.5,80.8,38.1,79.9,38.7"/>
			</defs>
			<clipPath id="SVGID_10_">
				<use xlink:href="#SVGID_9_"  style="overflow:visible;"/>
			</clipPath>
			<path class="st11" d="M79.5,35.2c-15,0-27.3,12.2-27.3,27.3s12.2,27.3,27.3,27.3s27.3-12.2,27.3-27.3S94.5,35.2,79.5,35.2
				 M79.5,90.9c-3.8,0-7.5-0.8-11.1-2.2c-3.4-1.4-6.4-3.5-9-6.1c-2.6-2.6-4.7-5.7-6.1-9c-1.5-3.5-2.2-7.2-2.2-11.1
				c0-3.8,0.8-7.5,2.2-11.1c1.4-3.4,3.5-6.4,6.1-9c2.6-2.6,5.7-4.7,9-6.1c3.5-1.5,7.2-2.2,11.1-2.2c3.8,0,7.5,0.8,11.1,2.2
				c3.4,1.4,6.4,3.5,9,6.1c2.6,2.6,4.7,5.7,6.1,9c1.5,3.5,2.2,7.2,2.2,11.1c0,3.8-0.8,7.5-2.2,11.1c-1.4,3.4-3.5,6.4-6.1,9
				c-2.6,2.6-5.7,4.7-9,6.1C87,90.1,83.3,90.9,79.5,90.9"/>
		</g>
		<g>
			<defs>
				<path id="SVGID_11_" d="M79.9,38.7c-1.4,0.9-2.6,1.2-3,0.9c-0.4-0.2-0.8-0.8-1-0.5s-0.7,0.9-1.1,0.6c-0.4-0.3-1-0.6-1,0.3
					c0,0.9-0.6,1.6-1.5,1.9c-0.9,0.3-1,0.8-1.8,2.1c-0.8,1.2-1.7,1.1-3.3,1.2c-1.6,0.1-1.7,0.9-1.7,0.9s-0.5,2.3-1,3
					c-0.5,0.7-1.7,0.1-1.7,0.1s0.7,0.6,1.1,1.6c0.4,1,0,1.5,0,1.5l0.3,0.5c0.3,0.5,0.3,3.4,0.3,3.4s0.7,0.6,1.9,2
					c1.2,1.4,1.4,2.4,1.5,2.6c0.1,0.2,2.9,4.1,2.9,4.1s0.7-0.8,1.1-0.9c0.3-0.1,0.9,0.4,0.9,0.4c0.1,0,2.7-1.1,2.9-0.9
					c0.5,0.6,3,2.2,3.8,2c0.8-0.1,2.4-1.8,3.6-1.4c1.2,0.4,0.8,1.8,0.8,1.8s0.7-0.4,1-0.5c0.3,0,0.2,0.6,0.5,0.7
					c0.2,0.1,1,0.9,1.3,1.4c0.3,0.5-0.9,1.6-1.1,2c-0.1,0.5,1,1.8,1.2,2.4c0.2,0.6,0,0.8,0,0.8s-1,1.4-1.8,2.6
					c-0.8,1.2-1.1,1.5-1.1,1.5c-0.1,1.6,1,2.9,1.4,3.2c0.4,0.3,1.8,1.8,2.1,3.1c0.2,1.3,0.7,1.9,1,2.8c0.3,0.9,0,2.2,0,2.2
					s0.2,0.6,0.9,1c0.7,0.4,1.4-0.7,2.1-1.2c0.8-0.6,1.6-0.7,2.5-1.2c0.9-0.5,1.3-1.4,1.4-1.8c0.1-0.4,1.6-1.5,2.9-2.2
					c1.3-0.8,1.8-2,1.8-2s-0.2-2.4,0.1-3.3c0.2-0.9,2.3-3.1,2.9-3.9c0.6-0.8,0.2-2.3,0.2-2.3s1-0.8,2.1-1.5c1.1-0.7,1.1-1.5,1.8-3.5
					s3-2.9,3.6-3.3c0.6-0.4,1.5-2,1.3-2.4c-0.2-0.4-0.3-1.2-0.2-1.8c0.1-0.6-0.5-0.6-0.5-0.6s-3,0-3.6-0.6c-0.6-0.5-0.5-1.6-0.5-1.6
					l-4.4-6.2l0.1-2.6c0,0-0.3-0.3-0.7-0.6c-0.4-0.3,0.1-1,0.2-1.7c0.1-0.7,0-1.6-0.8-1.6c-0.8,0.1-1.9,0.1-2.8-0.3
					c-1-0.5-1.8-2.4-1.8-2.4l-1.7,0.9c0,0,0,0.3,0,1.2c-0.1,0.8-0.4,1-1.6,0.4s-1.4-0.5-2.1-0.1c-0.8,0.4-1.8-0.4-2.9-0.9
					c-1.1-0.5-1.9,0.1-1.9,0.1s0.6-0.7,0.7-1.4c0.1-0.7-0.3-1-0.3-1s-2-1-3.3-2c-0.5-0.4-0.9-0.5-1.4-0.5
					C81.6,37.5,80.8,38.1,79.9,38.7"/>
			</defs>
			<clipPath id="SVGID_12_">
				<use xlink:href="#SVGID_11_"  style="overflow:visible;"/>
			</clipPath>
			<path class="st12" d="M80.3,30.1c-17.8,0-32.3,14.5-32.3,32.3s14.5,32.3,32.3,32.3s32.3-14.5,32.3-32.3S98.1,30.1,80.3,30.1
				 M80.3,95.9c-4.5,0-8.9-0.9-13-2.6c-4-1.7-7.6-4.1-10.7-7.2c-3.1-3.1-5.5-6.6-7.2-10.7c-1.7-4.1-2.6-8.5-2.6-13s0.9-8.9,2.6-13
				c1.7-4,4.1-7.6,7.2-10.7c3.1-3.1,6.6-5.5,10.7-7.2c4.1-1.7,8.5-2.6,13-2.6c4.5,0,8.9,0.9,13,2.6c4,1.7,7.6,4.1,10.7,7.2
				c3.1,3.1,5.5,6.6,7.2,10.7c1.7,4.1,2.6,8.5,2.6,13s-0.9,8.9-2.6,13c-1.7,4-4.1,7.6-7.2,10.7c-3.1,3.1-6.6,5.5-10.7,7.2
				C89.2,95,84.8,95.9,80.3,95.9"/>
		</g>
	</g>
	<path class="st6" d="M85.4,66.3c-0.2-0.1-0.1-0.8-0.5-0.7c-0.3,0-1,0.5-1,0.5s0.4-1.4-0.8-1.8c-1.2-0.4-2.7,1.2-3.6,1.4
		c-0.8,0.1-3.3-1.4-3.8-2c-0.2-0.2-2.8,0.9-2.9,0.9c0,0-0.6-0.5-0.9-0.4c-0.3,0.1-1.1,0.9-1.1,0.9s-2.8-3.9-2.9-4.1
		c-0.1-0.2-0.2-1.2-1.5-2.6c-1.2-1.4-1.9-2-1.9-2s0-2.9-0.3-3.4c0,0,0.6,0.2,0.8,0c0.2-0.2,1-1.4,1.2-1.9c0.1-0.5,1.6-1.7,1.9-1.9
		c0.3-0.2,1.7-0.8,2.3-1.9c0.6-1.1,1.7-2.8,2.6-2.9c0.9,0,1.3,1.6,1.8,2.6c0.5,1,3,4.1,4.1,4.6c0,0,0.8,0.7,1.1,0.7
		c0.3,0,0.5-0.3,0.8-0.8s2.3-2.5,2.5-2.5s0.7,0.3,0.8,0.1c0.1-0.1,0.8-1.2,1.1-1.1c0.3,0.1,1.4,0.3,1.5,0.8c0.1,0.6,0.7,2.2,0.8,2.5
		c0.2,0.4,1.4,1.7,1.7,2.3c0.2,0.5,0.2,1.1,0.5,1.1s1.8-0.1,1.8,0.5c0,0.6-0.9,1.6-1.2,2.1c-0.3,0.5-1.9,2.6-1.8,3
		c0.1,0.3,0.8,1,0.7,1.4c0,0-0.1,0.9-0.6,1.2c-0.5,0.3-1.1,0.7-1.1,1s0,0.4-0.1,0.4c-0.1,0-0.7-0.5-0.9-0.5c-0.2,0-0.8,0-0.7,0.6
		c0,0.5,0.6,2,0.2,2.1C85.5,66.5,85.4,66.3,85.4,66.3"/>
	<path class="st13" d="M62.6,49.3c0,0,1.2,0.5,1.7-0.1c0.5-0.7,1-3,1-3s0.1-0.8,1.7-0.9c1.6-0.1,2.4,0.1,3.3-1.2
		c0.8-1.2,1-1.7,1.8-2.1c0.9-0.3,1.5-1,1.5-1.9c0-0.9,0.7-0.6,1-0.3c0.4,0.3,0.8-0.3,1.1-0.6c0.2-0.3,0.7,0.2,1,0.5s1.7,0,3-0.9
		c1.4-0.9,2.6-1.7,4-0.7c1.4,1.1,3.3,2,3.3,2s0.4,0.3,0.3,1s-0.7,1.4-0.7,1.4s0.8-0.6,1.9-0.1c1.1,0.5,2.2,1.3,2.9,0.9
		c0.8-0.4,1-0.5,2.1,0.1c1.1,0.6,1.5,0.5,1.6-0.4c0.1-0.8,0-1.2,0-1.2l1.7-0.9c0,0,0.8,1.9,1.8,2.4c1,0.5,2,0.4,2.8,0.3
		c0.8-0.1,0.9,0.9,0.8,1.6s-0.6,1.4-0.2,1.7c0.4,0.3,0.7,0.6,0.7,0.6l-0.1,2.6l4.4,6.2c0,0,0,1,0.5,1.6c0.6,0.5,3.6,0.6,3.6,0.6
		s0.6,0,0.5,0.6s0,1.4,0.2,1.8c0.2,0.4-0.7,1.9-1.3,2.4c-0.6,0.4-3,1.4-3.6,3.3c-0.6,2-0.7,2.8-1.8,3.5c-1.1,0.7-2.2,1.5-2.2,1.5
		s0.3,1.5-0.2,2.3c-0.6,0.8-2.6,3.1-2.9,3.9c-0.2,0.9-0.1,3.3-0.1,3.3s-0.5,1.2-1.8,2s-2.9,1.8-2.9,2.2c-0.1,0.4-0.5,1.3-1.4,1.8
		c-0.9,0.5-1.7,0.7-2.5,1.2c-0.8,0.6-1.4,1.6-2.2,1.2c-0.7-0.4-0.9-1-0.9-1s0.3-1.3,0-2.2c-0.3-0.9-0.7-1.5-1-2.8
		c-0.2-1.3-1.7-2.8-2.1-3.1c-0.4-0.3-1.5-1.5-1.4-3.2c0,0,0.3-0.3,1.1-1.5s1.8-2.6,1.8-2.6s0.2-0.2,0-0.8c-0.2-0.6-1.4-1.9-1.2-2.4
		c0.1-0.4,1.4-1.6,1.1-2c-0.3-0.5-1.1-1.3-1.3-1.4c-0.2-0.1-0.1-0.8-0.5-0.7c-0.3,0-1,0.5-1,0.5s0.4-1.4-0.8-1.8
		c-1.2-0.4-2.7,1.2-3.6,1.4c-0.8,0.1-3.3-1.4-3.8-2c-0.2-0.2-2.8,0.9-2.9,0.9c0,0-0.6-0.5-0.9-0.4c-0.3,0.1-1.1,0.9-1.1,0.9
		s-2.8-3.9-2.9-4.1c-0.1-0.2-0.2-1.2-1.5-2.6c-1.2-1.4-1.9-2-1.9-2s0-2.9-0.3-3.4l-0.3-0.5c0,0,0.4-0.5,0-1.5
		C63.3,49.9,62.6,49.3,62.6,49.3z"/>
	<path class="st4" d="M55,17.6c0,0-5.6,3.7-6.6,4.4c-0.9,0.6-0.8,1.1-0.8,1.1s0,3.7,0,4.8c0,1.1,0.9,0.4,0.9,0.4s5.3-4.2,5.8-4.6
		c0.5-0.4,1,0,1.1,0.8c0,0.9-0.3,1.2-0.3,1.2s-6.4,5.3-7.4,6.5c-1.5,1.6-2.6,0.5-2.6-0.5c0-0.6,0-8.1,0-8.1c0-1.8,0.8-2.3,0.8-2.3
		s7.4-5.2,8.3-5.9c1-0.6,1.2-0.1,1.2,0.3L55.5,17C55.5,17,55.5,17.4,55,17.6"/>
	<path class="st4" d="M68,10.5c0-0.5-0.3-0.4-0.9-0.3c-0.6,0.1-4.8,1.5-6.1,2c-1.4,0.6-2.4,0.9-2.4,2.3c0,1.4-0.1,7.8-0.1,8.4
		c0,0.6,0.1,1,1.9-0.1c0,0,6.3-3,7.1-3.2c0.8-0.3,0.8-0.3,0.8-0.7c0-0.3,0-1.4,0-1.4s-0.1-0.5-0.7-0.3c-0.7,0.2-2.8,1-3.6,1.4
		c-0.8,0.4-2.1,0.8-2.1,0.8s-0.5,0.3-0.6-0.1c0-0.5,0-0.8,0-0.8s-0.1-0.4,0.4-0.6c0.5-0.2,4.7-1.9,5.1-2.1c0.4-0.2,0.5-0.1,0.5-0.5
		v-1c0-0.4,0-0.6-0.8-0.3c-0.8,0.3-4.9,1.9-4.9,1.9s-0.5,0.2-0.5-0.2c0-0.4,0-0.7,0-0.7s-0.2-0.4,0.4-0.7c0.7-0.3,5.9-2.4,5.9-2.4
		s0.6-0.2,0.6-0.5C68,11.4,68,10.5,68,10.5"/>
	<path class="st4" d="M81.2,13.4c0,0,0,1-1.3,1.3c-1,0.2-3.6,0.6-4.5,0.7c-0.2,0-0.4,0.1-0.4-0.2c0-0.3,0-4.1,0-4.1s0-0.4,0.6-0.5
		c0.6-0.1,4.1-0.5,4.1-0.5s1.7,0,1.7,1C81.3,12.2,81.2,13.4,81.2,13.4 M80.8,7.8c0,0-6.4,0.8-7.5,1.1c-1.1,0.2-1,1-1,1s0,7.4,0,8
		s0.4,0.5,0.8,0.4c1.7-0.3,6.4-1,8.3-1.4c2.4-0.5,2.5-2.5,2.5-2.5s0.2-2.4,0.2-4.5S80.8,7.8,80.8,7.8"/>
	<path class="st4" d="M97.4,10.1c0-0.3,0-0.7-1.7-1.1c-1.7-0.4-7.4-1-7.4-1s-1.4-0.5-1.4,0.8s0,7.4,0,7.4s-0.1,0.8,1.8,1
		c1.9,0.2,4.8,0.8,5.6,0.9c0.8,0.2,2.9,0.6,2.9,0.6s0.3,0.1,0.3-0.2c0-0.3,0-1,0-1s-0.1-0.5-1.1-0.8s-3.1-1-4.6-1.1
		c-1.5-0.2-1.7,0-1.7,0s-0.3-0.1-0.3-0.4c0-0.3,0-1,0-1s0.1-0.2,0.9-0.1c0.7,0.1,5.4,0.9,5.4,0.9s0.8,0.3,0.8-0.2c0-0.5,0-1.5,0-1.5
		s0.1-0.4-1-0.6c-1.1-0.1-4.9-0.9-5.5-0.8c-0.6,0.1-0.8,0-0.8-0.3c0-0.3,0-1.2,0-1.2s0-0.4,0.6-0.3c0.5,0.1,4.2,0.9,5,1.2
		c0.8,0.3,1.6,0.5,1.9,0.3C97.4,11.2,97.4,10.1,97.4,10.1"/>
	<path class="st4" d="M120.8,30c-1.8-1.5-2.9-2.6-2.9-2.6s-0.4-0.3-0.5-1.3c0-1-0.2-3.5-0.2-3.5s0-1.5,1.2-0.9
		c1.2,0.6,3,2.1,3.5,2.8c0.4,0.8,0.4,1.5,0.4,2.7C122.3,28.4,122.6,31.6,120.8,30 M123.5,23.1c-1.2-1.2-3.5-3.5-5.8-4.6
		c-2.5-1.2-2.8,1.2-2.8,1.2s-0.2,4.3-0.1,6.2c0,1.9,0.8,2.5,0.8,2.5s1.3,1.4,4.5,4.3c2.2,2,4.3,0.8,4.3-1.7c0-1.4,0-2.5,0-3.3
		C124.5,25.4,124.8,24.4,123.5,23.1"/>
	<path class="st4" d="M110.2,18.1c0,0-1.9-1.1-2.9-1.6s-3.5-1.6-3.5-1.6c0-2,1.2-1.6,1.2-1.6s3.4,1.4,4.5,2.3
		C110.5,16.4,110.2,18.1,110.2,18.1 M111.4,14.6c-0.9-0.4-5.6-3.1-7.2-3.2c-1.6-0.1-2.9-0.1-3,1.6s0.1,6.7,0.1,6.7s0,0.6,0.6,0.7
		c0.6,0.1,1.5,0.7,1.5-0.1c0-0.8,0.1-2.1,0.1-2.1s0-0.4,0.5-0.2s5.8,2.7,5.8,2.7s0.5,0.2,0.5,0.7c0,0.6,0,1.7,0,2.2s0,1.1,0.7,1.5
		c0.7,0.4,1.6,1,1.6-0.3c0,0,0-7.9,0-8.5C112.6,15.7,112.3,15.1,111.4,14.6"/>
	<path class="st4" d="M54,106.5c0,0-6.1-5.3-7.7-7.2c-0.6-0.7-0.9-0.4-0.9,0.5c0,0.8,0,11.4,0,11.4s0.3,0.4,1.3,1.2
		c0,0,6.2,4.5,6.8,4.8c0.6,0.2,0.8,0.5,0.9-0.1c0-0.6,0-1.6,0-1.6s-0.1-0.2-0.6-0.6c-0.5-0.3-5.8-4.2-5.8-4.2s-0.4-0.3-0.3-0.9
		c0.1-0.6,0.6-0.2,0.9,0c0.3,0.2,3.9,2.7,4.6,3.1c0.7,0.4,0.8,0.2,0.8-0.3s0-1.6,0-1.6s0.1-0.3-0.5-0.7c-0.6-0.4-4.7-3.3-5-3.6
		c-0.3-0.3-0.5-0.4-0.5-1c0-0.7,0.1-1.2,0.1-1.2s0.2-0.1,0.8,0.4c0.6,0.6,4.4,3.5,4.9,3.8c0.5,0.3,0.9,0.4,0.9-0.1
		c0-0.6,0-1.2,0-1.2S54.5,107,54,106.5"/>
	<path class="st4" d="M67.8,114.8c0-0.7,0-1-0.9-1.4c-0.9-0.3-2.5-0.9-4-1.6c-1.6-0.7-2.9-1.5-3.4-1.8c-0.5-0.2-1.7-0.2-1.7,1.3
		l0,6.5c0,0-0.2,0.7,0.7,1.4c1.7,1.4,5.9,2.9,8.1,3.6c0,0,1,0.5,1-0.2s0-2.6,0-2.6s0.2-0.2-0.8-0.3c-1-0.1-3.2-0.7-4.1-1.1
		c-0.9-0.4-2.6-0.9-2.6-2.3c0-1.4,0.6-2.8,1.7-2.5c1.1,0.3,3.4,1.9,4.2,2.1c0.8,0.2,1.6,0.5,1.7-0.1
		C67.8,115.4,67.8,114.8,67.8,114.8"/>
	<path class="st4" d="M85.9,116.6h1.3c0.3,0,0.4,0.7,0.4,0.7l0,5l2-5.9c0,0,0-0.4,0.7-0.4s1.2,0,1.7,0c0.5,0,0.4,0.3,0.8,1.2
		c0.4,0.9,2,4.1,2,4.1s0.1-4.8,0.1-5.2c0-0.4,0.7-0.8,1.2-0.8c0.5-0.1,1.2-0.4,1.2,0.5c0,0.9,0,6.8,0,6.8s0.2,1.3-1.4,1.6
		c-1.7,0.4-2.9,0.7-3.3-0.1c-0.5-1.2-1.8-3.8-1.8-3.8l-1,3.3c0,0-0.1,1.2-1,1.3c-0.9,0.1-2.5,0-2.5,0s-0.8,0.1-0.9-0.8
		c0-0.9,0-6.5,0-7C85.3,116.6,85.9,116.6,85.9,116.6"/>
	<path class="st4" d="M121.8,103.2l0-2.8c0,0-0.3-0.1-0.7,0.2c-0.3,0.3-6,5.4-6,5.4s-1.1,1-0.9,2.9c0.2,1.9,0.8,3.7,2.5,2.4
		c1.6-1.3,2.1-1.6,2.1-1.6s1-0.7,1.3,0.3c0.3,0.9-0.5,1.4-1.2,1.8c-0.7,0.4-4.2,3-4.4,3.1c-0.2,0.1-0.9,0.1-0.9,0.7
		c0,0.6,0.1,1.7,0.1,1.7s-0.1,0.6,0.8,0c0.8-0.5,5.3-3.1,6.7-4.6c1.4-1.5,1.7-1.7,1.7-3.7c0-1.9-0.4-2.9-1.6-2.9
		c-1.1,0-1.6,0.8-2.3,1.3l-1.3,1c0,0-0.5,0.4-0.8-0.1c-0.3-0.6-0.2-1.2,1-2C119.1,105.5,121.8,103.2,121.8,103.2"/>
	<path class="st4" d="M78.5,122.6c-1.6,0-5.7-0.3-5.7-2.2v-1.8c0-0.5,0-1.4,2-1.2c1.9,0.2,5.5,0.7,5.5,2.6
		C80.2,121.9,80.1,122.6,78.5,122.6 M73.6,115.3c-3.3-0.1-3.4,1.4-3.4,2.3v3.8c0,3.6,6.9,3.7,9.7,3.7c2.7,0,3-2.5,3-6.1
		S76.9,115.5,73.6,115.3"/>
	<path class="st4" d="M109.4,113.9c0,0-1.9,1.5-3.5,2c-1.6,0.6-3.7,1.1-3.7,1.1s-0.1-1.5,1-1.9c1.1-0.4,4.5-2,5.2-2.5
		C109.1,112.2,109.5,113.1,109.4,113.9 M111.7,112.8c0-1.7-1.1-2.8-2.1-2.7c-0.6,0.1-1.2,0.4-1.5,0.7c-0.7,0.7-5,2.4-6.6,2.8
		c-1.6,0.4-1.7,1.5-1.7,2.1c0,0.7-0.3,7.2-0.3,7.2l2.5,0l0.2-3.5c0,0,2.4-0.7,3.3-1c0.9-0.3,2.5-0.9,3.2-1.3c0.7-0.4,0.7,0,0.7,0
		s0,0.9-0.1,1.7s0.5,0.6,0.5,0.6s1-0.3,1.5-0.6c0.5-0.3,0.3-0.7,0.3-0.7L111.7,112.8z"/>
	<g>
		<path class="st4" d="M205.7,25c11.6,0,20.6,2.1,26.8,6.2c6.2,4.1,9.3,10.6,9.3,19.3c0,5.5-1.3,9.9-3.8,13.3
			c-2.5,3.4-6.1,6.1-10.8,8c1.6,1.9,3.2,4.2,4.9,6.7c1.7,2.5,3.4,5.1,5.1,7.8c1.7,2.7,3.3,5.6,4.9,8.5c1.6,3,3,5.8,4.4,8.7h-19.5
			c-1.4-2.5-2.9-5.1-4.3-7.7c-1.5-2.6-3-5.2-4.5-7.6s-3.1-4.8-4.6-7c-1.5-2.2-3-4.2-4.5-6h-8.6v28.3H183V27
			c3.8-0.7,7.7-1.3,11.8-1.6C198.8,25.1,202.5,25,205.7,25z M206.7,39.9c-1.3,0-2.4,0-3.4,0.1c-1,0.1-2,0.2-2.9,0.2v21.1h4.9
			c6.6,0,11.3-0.8,14.1-2.5c2.8-1.6,4.3-4.4,4.3-8.4c0-3.8-1.4-6.5-4.3-8.1C216.5,40.7,212.3,39.9,206.7,39.9z"/>
		<path class="st4" d="M324.4,103.5c-0.9-2.7-1.8-5.5-2.8-8.3c-1-2.8-2-5.7-3-8.5h-30.3c-1,2.8-2,5.7-2.9,8.5
			c-1,2.8-1.9,5.6-2.8,8.3h-18.1c2.9-8.4,5.7-16.1,8.3-23.2c2.6-7.1,5.2-13.8,7.7-20c2.5-6.3,5-12.2,7.4-17.9
			c2.4-5.6,5-11.1,7.6-16.5h16.6c2.5,5.4,5.1,10.9,7.5,16.5c2.5,5.6,5,11.6,7.5,17.9c2.5,6.3,5.1,13,7.7,20
			c2.6,7.1,5.4,14.8,8.3,23.2H324.4z M303.4,43.5c-0.4,1.1-1,2.7-1.7,4.6c-0.8,1.9-1.6,4.2-2.6,6.7c-1,2.5-2,5.3-3.2,8.4
			c-1.2,3.1-2.4,6.3-3.6,9.6h22.2c-1.2-3.4-2.3-6.6-3.5-9.6c-1.1-3.1-2.2-5.9-3.2-8.4c-1-2.5-1.9-4.8-2.6-6.7
			C304.5,46.1,303.9,44.6,303.4,43.5z"/>
		<path class="st4" d="M411.1,25.9h17.5v77.6h-17.5V70.6h-29.3v32.9h-17.5V25.9h17.5v29.7h29.3V25.9z"/>
		<path class="st4" d="M457.7,25.9h17.5v77.6h-17.5V25.9z"/>
		<path class="st4" d="M525.5,90.2c2.5,0,4.5-0.2,6.1-0.6c1.6-0.4,2.9-1,3.9-1.7c1-0.7,1.6-1.5,2-2.5c0.4-1,0.6-2.1,0.6-3.2
			c0-2.5-1.2-4.6-3.6-6.3c-2.4-1.7-6.5-3.5-12.3-5.4c-2.5-0.9-5.1-1.9-7.6-3.1c-2.5-1.2-4.8-2.6-6.8-4.4c-2-1.8-3.7-3.9-4.9-6.4
			c-1.3-2.5-1.9-5.5-1.9-9.1s0.7-6.8,2-9.7c1.3-2.9,3.2-5.3,5.7-7.3c2.5-2,5.4-3.6,9-4.6c3.5-1.1,7.5-1.6,11.9-1.6
			c5.2,0,9.7,0.6,13.6,1.7c3.8,1.1,6.9,2.4,9.4,3.7l-5,13.8c-2.2-1.1-4.6-2.1-7.2-3c-2.7-0.9-5.8-1.3-9.6-1.3c-4.2,0-7.2,0.6-9,1.7
			c-1.8,1.2-2.7,2.9-2.7,5.3c0,1.4,0.3,2.6,1,3.6c0.7,1,1.6,1.8,2.9,2.6c1.2,0.8,2.6,1.5,4.3,2.1c1.6,0.6,3.4,1.3,5.3,2
			c4,1.5,7.5,3,10.5,4.4c3,1.5,5.5,3.2,7.4,5.1c2,1.9,3.5,4.2,4.4,6.8c1,2.6,1.5,5.8,1.5,9.5c0,7.2-2.5,12.9-7.6,16.9
			c-5.1,4-12.7,6-23,6c-3.4,0-6.5-0.2-9.3-0.6c-2.8-0.4-5.2-0.9-7.3-1.5c-2.1-0.6-4-1.2-5.5-1.9c-1.5-0.7-2.8-1.3-3.9-1.9l4.9-13.9
			c2.3,1.3,5.2,2.4,8.6,3.4C516.4,89.7,520.5,90.2,525.5,90.2z"/>
	</g>
</g>
</svg>
