<?xml version="1.0" encoding="utf-8"?>
<!-- Generator: Adobe Illustrator 24.1.3, SVG Export Plug-In . SVG Version: 6.00 Build 0)  -->
<svg version="1.1" xmlns="http://www.w3.org/2000/svg" xmlns:xlink="http://www.w3.org/1999/xlink" x="0px" y="0px"
	 viewBox="0 0 376 178" style="enable-background:new 0 0 376 178;" xml:space="preserve">
<style type="text/css">
	.st0{display:none;}
	.st1{display:inline;}
	.st2{fill:#3C4B64;}
	.st3{fill:#FFFFFF;stroke:#231F20;stroke-miterlimit:10;}
	.st4{fill:#259045;}
	.st5{fill:#993521;}
	.st6{fill:#218B44;}
	.st7{fill:#FFFFFF;}
	.st8{fill:#FCEB05;}
	.st9{fill:#039046;}
	.st10{clip-path:url(#SVGID_2_);fill:#FAE804;}
	.st11{clip-path:url(#SVGID_4_);fill:#FFFFFF;}
	.st12{clip-path:url(#SVGID_6_);fill:#FFFFFF;}
	.st13{clip-path:url(#SVGID_8_);fill:#FFFFFF;}
	.st14{clip-path:url(#SVGID_10_);fill:#FFFFFF;}
	.st15{clip-path:url(#SVGID_12_);fill:#FFFFFF;}
	.st16{fill:none;stroke:#039046;stroke-width:1.7427;stroke-linejoin:round;}
	.st17{fill:none;}
	.st18{font-family:'Ubuntu-Bold';}
	.st19{font-size:70px;}
</style>
<g id="Warstwa_1" class="st0">
	<g class="st1">
		<g>
			<path class="st2" d="M128,56.1L89,33.6c-3.7-2.1-8.3-2.1-12,0L38,56.1c-3.7,2.1-6,6.1-6,10.4v45c0,4.3,2.3,8.2,6,10.4l39,22.5
				c3.7,2.1,8.3,2.1,12,0l39-22.5c3.7-2.1,6-6.1,6-10.4v-45C134,62.2,131.7,58.3,128,56.1z M126,111.6c0,1.4-0.8,2.7-2,3.5l-39,22.5
				c-1.2,0.7-2.8,0.7-4,0L42,115c-1.2-0.7-2-2-2-3.5v-45c0-1.4,0.8-2.7,2-3.5l39-22.5c1.2-0.7,2.8-0.7,4,0l39,22.5
				c1.2,0.7,2,2,2,3.5V111.6z"/>
			<path class="st2" d="M106,102.1h-2.9c-0.7,0-1.3,0.2-1.9,0.5l-17.3,9.5L64,100.5v-23L83.9,66l17.3,9.5c0.6,0.3,1.2,0.5,1.9,0.5
				h2.9c1.1,0,2-0.9,2-2v-2.7c0-0.7-0.4-1.4-1-1.8L87.8,59c-2.5-1.3-5.4-1.3-7.8,0.1L60,70.6c-2.5,1.4-4,4.1-4,6.9v23
				c0,2.9,1.5,5.5,4,6.9L79.9,119c2.4,1.4,5.4,1.4,7.8,0.1l19.2-10.5c0.6-0.4,1-1,1-1.8v-2.7C108,103,107.1,102.1,106,102.1z"/>
		</g>
		<g>
			<path class="st2" d="M200.7,65.4c-8.3,0-15,6.7-15,15v17.3c0,8.3,6.7,15,15,15s15-6.7,15-15l0,0V80.4
				C215.7,72.1,209,65.4,200.7,65.4z M207.7,97.7c0,3.9-3.1,7-7,7s-7-3.1-7-7V80.4c0-3.9,3.1-7,7-7s7,3.1,7,7V97.7z"/>
			<path class="st2" d="M164.1,73.5c3.8-0.5,7.4,2.2,7.9,6c0,0,0,0,0,0c0.1,0.5,0.5,0.9,1,0.9h6c0.6,0,1-0.5,1-1c0,0,0-0.1,0-0.1
				c-0.6-8.1-7.6-14.3-15.7-13.9c-8.1,0.6-14.3,7.3-14.2,15.4v16.4c-0.1,8.1,6.2,14.9,14.2,15.4c8.1,0.4,15.1-5.8,15.7-13.9
				c0-0.6-0.4-1-0.9-1.1c0,0-0.1,0-0.1,0h-6c-0.5,0-0.9,0.4-1,0.9c-0.5,3.8-4,6.6-7.8,6.1c0,0,0,0,0,0c-3.5-0.5-6.1-3.6-6.1-7.2
				V80.7C157.9,77.1,160.5,74,164.1,73.5z"/>
			<path class="st2" d="M246.9,93c4.4-2,7.2-6.3,7.2-11.1v-3.7c0-6.7-5.4-12.1-12.1-12.1h-17c-0.6,0-1,0.4-1,1v44c0,0.6,0.4,1,1,1h6
				c0.6,0,1-0.4,1-1v-17h6.6l7.9,17.4c0.2,0.4,0.5,0.6,0.9,0.6h6.6c0.6,0,1-0.4,1-1c0-0.1,0-0.3-0.1-0.4L246.9,93z M246.1,81.9
				c0,2.3-1.9,4.1-4.1,4.1h-9.9v-12h9.9c2.3,0,4.1,1.9,4.1,4.1V81.9z"/>
			<path class="st2" d="M289,66.1h-26c-0.6,0-1,0.4-1,1v44c0,0.6,0.4,1,1,1h26c0.6,0,1-0.4,1-1v-6c0-0.6-0.4-1-1-1h-19v-12h13
				c0.6,0,1-0.4,1-1v-6c0-0.6-0.4-1-1-1h-13v-10h19c0.6,0,1-0.4,1-1v-6C290,66.5,289.6,66.1,289,66.1z"/>
			<path class="st2" d="M327,66.1h-6c-0.6,0-1,0.4-1,1v22.6c0.2,3.9-2.8,7.1-6.7,7.3c-3.9,0.2-7.1-2.8-7.3-6.7c0-0.2,0-0.4,0-0.6
				V67.1c0-0.6-0.4-1-1-1h-6c-0.6,0-1,0.4-1,1v22.6c-0.2,8.3,6.4,15.1,14.7,15.3c8.3,0.2,15.1-6.4,15.3-14.7c0-0.2,0-0.4,0-0.6V67.1
				C328,66.5,327.6,66.1,327,66.1z"/>
			<path class="st2" d="M337,66.1h6c0.6,0,1,0.4,1,1v36c0,0.6-0.4,1-1,1h-6c-0.6,0-1-0.4-1-1v-36C336,66.5,336.4,66.1,337,66.1z"/>
		</g>
	</g>
</g>
<g id="Layer_2">
	<circle class="st3" cx="84.4" cy="87.3" r="52.1"/>
	<path class="st4" d="M84.1,129.4c-23.3,0-42.2-18.9-42.2-42.2S60.8,45,84.1,45s42.2,18.9,42.2,42.2
		C126.3,110.5,107.4,129.4,84.1,129.4 M84.1,34.4c-28.9,0-52.3,23.6-52.3,52.8s23.4,52.8,52.3,52.8s52.3-23.6,52.3-52.8
		C136.4,58.1,113,34.4,84.1,34.4"/>
	<path class="st5" d="M97.6,64.2c0.3-0.4,0.5-0.9,0.7-1.3c3.8,2.1,6.8,4.9,9,8.7c0.4-0.3,0.8-0.5,1.2-0.8c-2.4-3.9-5.7-6.7-9.7-8.9
		c0.2-0.4,0.4-0.7,0.6-1.1c4.1,2.3,7.5,5.4,10.1,9.3c0.4-0.2,0.7-0.5,1.2-0.7c-2.8-4.1-6.4-7.2-10.6-9.7c0.2-0.4,0.5-0.8,0.7-1.3
		c4.5,2.6,8.2,5.9,11.1,10.2c0.5-0.3,1-0.6,1.5-0.9c-3.1-4.5-7-8.1-11.7-10.7c0.2-0.4,0.4-0.7,0.7-1.2c5,2.7,9.1,6.3,12.2,11.1
		c0.4-0.2,0.7-0.4,1-0.7c-3.5-4.6-7.6-8.6-12.6-11.7c0.1-0.3,0.3-0.5,0.4-0.7c0.1-0.2,0.3-0.5,0.4-0.7c13.8,7.7,23.3,25.1,18.3,43.8
		c-4.9,18.4-21.4,28.6-36,28.9v-12.6c7.1-0.6,13.1-3.4,17.9-8.7c3.3-3.6,5.4-7.8,6.3-12.5c1.1-5.5,0.5-10.9-1.9-16
		C106.1,71,102.5,67,97.6,64.2"/>
	<path class="st5" d="M68.8,59.8c-4.1,2.5-7.5,5.7-10.4,9.6c0.1,0.1,0.1,0.1,0.2,0.2c0.3,0.2,0.5,0.4,0.8,0.5
		c2.6-3.8,5.9-6.9,9.9-9.3c0.2,0.4,0.4,0.7,0.7,1.1c-4,2.1-7,5.3-9.7,8.7c0.3,0.2,0.4,0.3,0.7,0.5c0.2,0.1,0.4,0.3,0.7,0.4
		c2.4-3.5,5.4-6.3,9.1-8.5c0.2,0.4,0.4,0.7,0.6,1C60.9,71,56.4,80.4,58.7,92.7c1.1,5.8,4.1,10.5,8.6,14.3c4.4,3.8,9.6,5.9,15.4,6.3
		v12.6c-13.8-0.2-30.3-9.5-35.7-27.7c-5.6-18.8,3.6-36.9,18-45c0.3,0.5,0.6,1.1,1,1.7c-2.5,1.4-4.8,3-6.9,4.8
		c-2.1,1.8-4.1,3.8-5.7,6.2c0.4,0.3,0.8,0.5,1.2,0.8c3.1-4.6,7-8.3,11.9-10.9c0.2,0.4,0.4,0.8,0.7,1.2c-4.6,2.6-8.4,6.1-11.6,10.4
		c0.5,0.3,1,0.7,1.5,1.1c1.4-2.1,3-4,4.9-5.7c1.8-1.7,3.8-3.2,6-4.5C68.3,58.8,68.5,59.3,68.8,59.8"/>
	<path class="st5" d="M89.6,51.3c0-0.6,0.1-1.1,0.1-1.7c-0.6,0.3-1.1,0.6-1.8,1c-0.1-0.6-0.3-1.1-0.4-1.6c-0.4,0.3-1,0.7-1.5,1.1
		c-0.3-0.7-0.5-1.2-0.7-2c-0.2,0.6-0.4,1.2-0.6,1.7c-0.6-0.5-1.2-1-1.9-1.6c-0.2,0.5-0.3,1-0.5,1.4c-0.6-0.3-1.1-0.6-1.7-0.9
		c0,0.6-0.1,1.1-0.1,1.7c-0.8-0.1-1.4-0.1-2.2-0.2c0.4,0.6,0.7,1.1,1.1,1.6c-0.7,0.4-1.4,0.8-2.2,1.2c0.4,0.3,0.7,0.6,1.1,0.8
		c0.5,0.4,0.5,0.4,0.2,1c-0.3,0.5-0.7,1-1.1,1.6c0.7-0.1,1.2-0.4,1.8-0.7c0.6-0.4,1.1-0.1,1.2,0.6c0,0.4,0,0.8,0.1,1.3
		c0.2-0.2,0.4-0.3,0.5-0.4c0.8-0.6,1.3-0.5,1.7,0.4c0.2,0.5,0.5,0.9,0.7,1.4c0.3-0.5,0.6-1,0.9-1.4c0.6,0.4,1.1,0.8,1.7,1.2
		c0.1-0.3,0.2-0.6,0.3-0.8c0.2-0.5,0.4-0.5,0.8-0.3c0.3,0.1,0.5,0.3,0.7,0.5c0.5,0.4,0.8,0.3,1-0.3c0.1-0.3,0.2-0.6,0.3-0.9
		c0.1-0.4,0.3-0.4,0.6-0.2c0.3,0.2,0.6,0.3,1,0.5c0-0.4,0-0.7,0-1.1c0-0.3,0.1-0.5,0.4-0.6c0.4-0.2,0.8-0.4,1.3-0.6
		c-0.4-0.4-0.7-0.7-1.1-1c0.5-0.4,0.9-0.7,1.4-1.1c-0.7-0.1-1.4-0.3-2-0.4c0.5-0.7,0.9-1.3,1.4-1.9C91.1,50.4,90.4,51.1,89.6,51.3
		 M78.6,51.7c-0.4-0.7-0.9-1.3-1.4-2c1,0.1,1.9,0.2,2.8,0.3v-2c0.7,0.4,1.3,0.7,2,1.1c0.2-0.5,0.3-1,0.5-1.6c0.6,0.5,1.2,1,1.9,1.6
		c0.1-0.4,0.3-0.8,0.4-1.1c0.1-0.2,0.2-0.3,0.4-0.3c0.2,0,0.4,0,0.5,0.3c0.1,0.5,0.3,0.9,0.5,1.4c0.8-0.6,1.6-1.2,2.5-1.9
		c-0.2,0.8-0.6,1.5-0.5,2.4c1-0.6,2-1.2,3-1.8c-0.3,0.8-1,1.4-1,2.4c0.9-0.5,1.9-0.5,2.9-0.3c-0.5,0.7-1,1.4-1.5,2.1
		c0.8,0.2,1.6,0.3,2.4,0.5c-0.7,0.5-1.2,1-1.9,1.4c0.4,0.4,0.8,0.7,1.3,1.1c-0.5,0.3-1,0.5-1.5,0.7c-0.5,0.2-0.7,0.5-0.6,1
		c0,0.4,0,0.8,0,1.3c-0.6-0.3-1.1-0.6-1.6-0.8c-0.3,0.5-0.5,0.9-0.8,1.4c-0.1,0.2-0.3,0.3-0.5,0.1c-0.5-0.3-1.1-0.5-1.6-0.8
		c-0.2,0.4-0.4,0.9-0.6,1.5c-0.6-0.4-1.2-0.8-1.8-1.3c-0.4,0.5-0.7,1.1-1.1,1.7c-0.2-0.4-0.4-0.7-0.6-1.1c-0.2-0.4-0.4-0.8-0.6-1.2
		c-0.2-0.5-0.4-0.5-0.8-0.2c-0.5,0.4-0.9,0.8-1.5,1.3v-2.8c0,0-0.1-0.1-0.1-0.1c-1,0.8-2.2,1.1-3.5,1.2c0.7-0.9,1.3-1.8,1.9-2.7
		c-0.7-0.5-1.2-1-1.9-1.5C77.1,52.5,77.8,52.1,78.6,51.7"/>
	<path class="st6" d="M64.4,77.4c-0.4,0-0.7,0-1.1-0.1c-0.1,0-0.2-0.1-0.2-0.1c0.1-0.3,0.1-0.6,0.3-0.8c0-0.1,0.3,0,0.5,0
		c0.2,0.1,0.4,0.3,0.6,0.5c0.1,0.1,0.1,0.3,0.1,0.4C64.6,77.3,64.4,77.4,64.4,77.4"/>
	<path class="st6" d="M63.5,75.2c-0.1-0.1-0.4-0.3-0.4-0.4c-0.1-0.4,0.2-0.5,0.5-0.5c0.3,0,0.7,0.1,0.7,0.4
		C64.4,75.2,63.9,75,63.5,75.2"/>
	<path class="st6" d="M62.6,76c-0.1,0.2-0.2,0.4-0.3,0.6c-0.2-0.2-0.4-0.4-0.5-0.6c-0.2-0.6,0-0.8,0.5-0.7
		C62.5,75.5,62.5,75.8,62.6,76"/>
	<path class="st6" d="M63.4,73.4c-0.1,0-0.4,0-0.3-0.4c0-0.3,0.1-0.7,0.4-0.6c0.2,0,0.5,0.3,0.5,0.5C64.2,73.3,63.9,73.4,63.4,73.4"
		/>
	<path class="st6" d="M65.7,76.2c-0.6,0.4-0.7,0.4-1.3-0.1c0.2-0.1,0.3-0.4,0.5-0.4C65.3,75.7,65.6,75.8,65.7,76.2"/>
	<path class="st6" d="M64.8,72.2c-0.2-0.2-0.3-0.3-0.4-0.5c0.1-0.1,0.3-0.3,0.3-0.3c0.2,0,0.4,0.2,0.5,0.3
		C65.1,71.8,65,71.9,64.8,72.2"/>
	<path class="st7" d="M85.3,56.5c0.5-0.1,1.4-0.1,2.1-0.3c0.9-0.1,1.4-0.7,1.9-1.4c0.2-0.4,0.3-0.8-0.1-1.2
		c-0.1-0.1-0.1-0.2-0.1-0.3c0.2-0.4-0.1-0.6-0.4-0.8c-0.3-0.2-0.6-0.3-1-0.4c-0.9-0.4-1.8-0.7-2.6-1.4c-0.2-0.2-0.5-0.3-0.8-0.3
		c-1.3,0-2.3,0.5-3,1.5c-0.9,1.3-1.1,3.4,1.2,4.2c0.2,0.1,0.4,0.1,0.7,0.1C83.8,56.4,84.4,56.5,85.3,56.5 M89.6,51.3
		c0.8-0.2,1.5-0.9,2.5-0.7c-0.5,0.7-0.9,1.3-1.4,2c0.7,0.1,1.3,0.3,2,0.4c-0.5,0.4-1,0.7-1.4,1.1c0.4,0.3,0.7,0.6,1.1,1
		c-0.5,0.2-0.9,0.4-1.3,0.6c-0.3,0.1-0.4,0.3-0.4,0.6c0,0.3,0,0.6,0,1.1c-0.4-0.2-0.7-0.4-1-0.5c-0.3-0.2-0.5-0.2-0.6,0.2
		c-0.1,0.3-0.1,0.6-0.3,0.9c-0.2,0.6-0.5,0.6-1,0.3c-0.2-0.2-0.5-0.4-0.7-0.5c-0.4-0.2-0.7-0.1-0.8,0.3c-0.1,0.3-0.2,0.5-0.3,0.8
		c-0.6-0.4-1.1-0.8-1.7-1.2C84,58,83.7,58.5,83.4,59c-0.3-0.5-0.5-1-0.7-1.4c-0.4-0.9-0.9-1-1.7-0.4c-0.1,0.1-0.3,0.2-0.5,0.4
		c0-0.5,0-0.9-0.1-1.3c-0.1-0.7-0.6-1-1.2-0.6c-0.5,0.3-1.1,0.7-1.8,0.7c0.4-0.5,0.7-1.1,1.1-1.6c0.4-0.5,0.3-0.5-0.2-1
		c-0.3-0.3-0.7-0.5-1.1-0.8c0.7-0.4,1.4-0.8,2.2-1.2c-0.3-0.5-0.7-1-1.1-1.6c0.8,0.1,1.5,0.1,2.2,0.2c0-0.5,0-1.1,0.1-1.7
		c0.6,0.3,1.1,0.6,1.7,0.9c0.1-0.5,0.3-0.9,0.5-1.4c0.6,0.5,1.2,1,1.9,1.6c0.2-0.6,0.4-1.1,0.6-1.7c0.3,0.7,0.5,1.3,0.8,2
		c0.5-0.4,1.1-0.8,1.5-1.1c0.1,0.5,0.3,1,0.4,1.6c0.6-0.4,1.2-0.7,1.8-1C89.7,50.2,89.6,50.7,89.6,51.3"/>
	<path class="st4" d="M88.7,53.1c0,0,0-0.1,0-0.1c-0.3-0.1-0.6-0.3-1-0.5c-1-0.4-2-0.8-2.9-1.5c-0.1-0.1-0.4-0.2-0.6-0.2
		c-1.4,0-2.3,0.7-3,1.8c-0.4,0.7-0.5,1.4-0.2,2.1c0.3,0.8,1.1,1.2,1.8,1.3c1.3,0.2,2.6,0.2,4,0c0.9-0.1,1.5-0.6,2-1.3
		c0.3-0.4,0.2-0.7-0.2-1c-0.4-0.3-0.8-0.3-1.2-0.2c-1,0.1-2,0.2-3,0.3c-0.1,0-0.2-0.1-0.3-0.1c0.1-0.1,0.2-0.2,0.3-0.2
		c0.5-0.1,1.1-0.1,1.6-0.2C87,53.3,87.8,53.2,88.7,53.1 M85.3,56.5c-0.9-0.1-1.5-0.1-2.1-0.2c-0.2,0-0.4-0.1-0.7-0.1
		c-2.3-0.8-2.1-2.9-1.2-4.2c0.7-1,1.7-1.6,3-1.5c0.3,0,0.6,0.1,0.8,0.3c0.8,0.7,1.7,1,2.6,1.4c0.3,0.1,0.6,0.3,0.9,0.4
		c0.3,0.2,0.6,0.3,0.4,0.8c0,0.1,0,0.2,0.1,0.3c0.4,0.4,0.3,0.8,0.1,1.2c-0.4,0.7-1,1.3-1.9,1.4C86.6,56.4,85.8,56.5,85.3,56.5"/>
	<path class="st7" d="M87.4,65l-0.3,0.5c-2-1.1-4.2-1.9-6.3-2.3l1.1-0.7c1.9,0.4,3.7,1.1,5.5,2L87.4,65z"/>
	<path class="st7" d="M106.5,80.7c0.3,1.2,0.4,1.8,0.5,3.2l-0.4,0.5l-0.4,0.6c-0.1-1.6-0.4-3.2-0.7-4.7l0.5,0.3L106.5,80.7z"/>
	<path class="st7" d="M100,68.7l0.3-0.4c-0.2-0.3-0.5-0.6-0.8-0.8l-1.1,0.2c0.5,0.5,1.1,1.1,1.6,1.8L100,68.7z"/>
	<path class="st7" d="M90.5,66.9l0.7-0.1c2,1.5,3.9,3.4,5.6,5.6c4.3,5.7,6,12.5,5.3,18.6l-1,0.3c0.9-5.9-0.8-12.7-5.1-18.4
		c-1.8-2.4-3.9-4.4-6.2-6L90.5,66.9z"/>
	<path class="st7" d="M87.9,106.4l0.3,0.5c5.6-4.2,9.2-10.8,9.2-18.4c0-12.6-10.2-22.9-22.9-22.9l-1.3,0.9c0.4,0,0.8,0,1.2,0
		c12.1,0,22,9.8,22,22c0,7.1-3.3,13.4-8.5,17.4L87.9,106.4z"/>
	<path class="st8" d="M99.1,101.9c0,0,1-1.2,1-1.7c0-0.4-0.2-0.7-0.2-0.7s0.3-0.2,0.3-0.3c0-0.1,0-0.5,0.2-0.7
		c0.2-0.2,1.6-0.5,1.9-0.8c0.3-0.3,0.2-0.3,0.3-0.5c0.1-0.2,0.6-0.6,0.6-0.7s0-0.5,0.2-0.5c0.2,0,0.3,0.1,0.3,0.3s-0.1,0.8,0,0.9
		c0.1,0.1,0.2,0.3,0.2,0.3c0,0-0.2-0.1-0.3,0c-0.1,0.1-0.1,0.4-0.1,0.5c0,0.3-0.3,0.4-0.3,0.5c0,0.1,0.1,0.2,0,0.3
		c-0.1,0.1-0.2,0.1-0.4,0.5c-0.1,0.3-0.3,0.7-0.3,0.8c0,0.1-0.2,0.7-0.4,1.1c-0.2,0.4-0.6,0.8-0.6,0.9c0,0-0.1,0.5-0.3,0.7
		c-0.2,0.2-0.8,0.5-1.1,0.5c-0.3,0-0.3,0-0.5-0.2C99.3,102.8,99.1,101.9,99.1,101.9"/>
	<path class="st9" d="M103.5,97.5c-0.1,0.1-0.1,0.4-0.1,0.5c0,0.3-0.3,0.4-0.3,0.5c0,0,0.1,0.2,0,0.3c0,0.1-0.2,0.1-0.3,0.5
		c-0.1,0.3-0.3,0.7-0.3,0.8c0,0.1-0.2,0.7-0.4,1.1c-0.2,0.4-0.6,0.8-0.6,0.9c0,0-0.1,0.5-0.3,0.7c-0.2,0.2-0.8,0.5-1.1,0.5
		c-0.3,0-0.3,0-0.5-0.2c-0.3-0.3-0.5-1.2-0.5-1.2s1-1.4,1.1-1.8c0-0.4-0.1-0.7-0.1-0.7s0.2-0.1,0.2-0.2s0-0.5,0.2-0.7
		c0.2-0.2,1.6-0.5,1.9-0.8c0.3-0.3,0.2-0.3,0.3-0.5c0.1-0.2,0.6-0.6,0.6-0.7c0-0.1,0-0.5,0.2-0.5c0.2,0,0.3,0.1,0.3,0.3
		s-0.1,0.8,0,0.9c0.1,0.1,0.2,0.3,0.2,0.3C103.8,97.6,103.6,97.5,103.5,97.5 M103.9,97.3c-0.1-0.1,0-0.7,0-1c0-0.2-0.3-0.6-0.5-0.6
		c-0.1,0-0.2,0.5-0.2,0.5c0,0.1-0.5,0.5-0.6,0.7c-0.1,0.2,0,0.2-0.3,0.5c-0.3,0.3-1.8,0.6-2,0.8c-0.2,0.2-0.2,0.6-0.2,0.7
		c0,0.1-0.3,0.3-0.3,0.3s0.2,0.4,0.2,0.8c0,0.5-1,1.7-1,1.7s0.1,1.1,0.4,1.4c0.2,0.2,0.5,0.4,0.8,0.4c0.3,0,1-0.4,1.1-0.5
		c0.2-0.2,0.3-0.7,0.3-0.7c0,0,0.4-0.5,0.7-0.9c0.2-0.3,0.3-1,0.4-1.1c0-0.1,0.2-0.5,0.3-0.8c0.1-0.4,0.3-0.4,0.4-0.5
		c0.1-0.1,0-0.3,0-0.3c0,0,0.3-0.1,0.3-0.5c0-0.2,0-0.4,0.1-0.4c0.1-0.1,0.4,0.1,0.4,0C104.1,97.7,104,97.5,103.9,97.3"/>
	<g>
		<g>
			<defs>
				<path id="SVGID_1_" d="M80.6,63.2c-1.2,0.8-2.3,1-2.6,0.8c-0.3-0.2-0.7-0.7-0.9-0.4c-0.2,0.3-0.6,0.8-0.9,0.5
					c-0.3-0.3-0.9-0.5-0.9,0.3c0,0.8-0.5,1.4-1.3,1.7c-0.8,0.3-0.8,0.7-1.6,1.8c-0.7,1.1-1.5,1-2.9,1S68,69.7,68,69.7
					s-0.4,2-0.9,2.6c-0.5,0.6-1.5,0.1-1.5,0.1s0.6,0.5,1,1.4c0.4,0.9,0,1.3,0,1.3l0.3,0.4c0.3,0.4,0.3,3,0.3,3s0.6,0.5,1.7,1.7
					c1.1,1.2,1.2,2,1.3,2.2c0.1,0.2,2.5,3.6,2.5,3.6s0.6-0.7,0.9-0.8s0.8,0.3,0.8,0.3c0.1,0,2.4-1,2.5-0.8c0.4,0.5,2.6,1.9,3.3,1.8
					c0.7-0.1,2.1-1.5,3.1-1.2c1,0.3,0.7,1.5,0.7,1.5s0.6-0.4,0.9-0.4c0.3,0,0.2,0.5,0.4,0.6c0.2,0.1,0.9,0.8,1.1,1.2
					c0.3,0.4-0.8,1.4-0.9,1.8c-0.1,0.4,0.9,1.6,1.1,2.1c0.2,0.5,0,0.7,0,0.7s-0.9,1.2-1.6,2.3c-0.7,1-1,1.3-1,1.3
					c-0.1,1.4,0.9,2.5,1.2,2.7c0.4,0.2,1.6,1.6,1.8,2.7c0.2,1.1,0.6,1.7,0.8,2.4c0.3,0.8,0,1.9,0,1.9s0.1,0.5,0.8,0.8
					c0.6,0.3,1.2-0.6,1.9-1.1c0.7-0.5,1.4-0.6,2.1-1.1c0.8-0.4,1.1-1.2,1.2-1.5s1.4-1.3,2.6-1.9s1.5-1.7,1.5-1.7s-0.1-2.1,0.1-2.8
					c0.2-0.8,2-2.7,2.5-3.4s0.2-2,0.2-2s0.9-0.7,1.9-1.3c1-0.6,1-1.3,1.5-3c0.5-1.7,2.6-2.5,3.2-2.9c0.5-0.4,1.3-1.7,1.1-2
					s-0.2-1-0.2-1.5c0.1-0.5-0.4-0.5-0.4-0.5s-2.6,0-3.1-0.5c-0.5-0.4-0.4-1.4-0.4-1.4l-3.8-5.4l0.1-2.3c0,0-0.2-0.3-0.6-0.5
					c-0.4-0.3,0.1-0.9,0.2-1.5c0.1-0.6,0-1.4-0.7-1.4s-1.6,0.1-2.5-0.3s-1.6-2.1-1.6-2.1L94,65.9c0,0,0,0.3,0,1
					c-0.1,0.7-0.4,0.8-1.4,0.3c-1-0.5-1.2-0.4-1.8-0.1c-0.7,0.4-1.5-0.4-2.5-0.8c-1-0.4-1.7,0.1-1.7,0.1s0.5-0.6,0.6-1.2
					c0.1-0.6-0.2-0.9-0.2-0.9s-1.7-0.8-2.9-1.8c-0.4-0.3-0.8-0.4-1.2-0.4C82.1,62.1,81.4,62.6,80.6,63.2"/>
			</defs>
			<clipPath id="SVGID_2_">
				<use xlink:href="#SVGID_1_"  style="overflow:visible;"/>
			</clipPath>
			<path class="st10" d="M122.4,86.8c0,20.3-18.7,36.7-41.7,36.7S39,107.1,39,86.8s18.7-36.7,41.7-36.7S122.4,66.6,122.4,86.8"/>
		</g>
		<g>
			<defs>
				<path id="SVGID_3_" d="M80.6,63.2c-1.2,0.8-2.3,1-2.6,0.8c-0.3-0.2-0.7-0.7-0.9-0.4c-0.2,0.3-0.6,0.8-0.9,0.5
					c-0.3-0.3-0.9-0.5-0.9,0.3c0,0.8-0.5,1.4-1.3,1.7c-0.8,0.3-0.8,0.7-1.6,1.8c-0.7,1.1-1.5,1-2.9,1S68,69.7,68,69.7
					s-0.4,2-0.9,2.6c-0.5,0.6-1.5,0.1-1.5,0.1s0.6,0.5,1,1.4c0.4,0.9,0,1.3,0,1.3l0.3,0.4c0.3,0.4,0.3,3,0.3,3s0.6,0.5,1.7,1.7
					c1.1,1.2,1.2,2,1.3,2.2c0.1,0.2,2.5,3.6,2.5,3.6s0.6-0.7,0.9-0.8s0.8,0.3,0.8,0.3c0.1,0,2.4-1,2.5-0.8c0.4,0.5,2.6,1.9,3.3,1.8
					c0.7-0.1,2.1-1.5,3.1-1.2c1,0.3,0.7,1.5,0.7,1.5s0.6-0.4,0.9-0.4c0.3,0,0.2,0.5,0.4,0.6c0.2,0.1,0.9,0.8,1.1,1.2
					c0.3,0.4-0.8,1.4-0.9,1.8c-0.1,0.4,0.9,1.6,1.1,2.1c0.2,0.5,0,0.7,0,0.7s-0.9,1.2-1.6,2.3c-0.7,1-1,1.3-1,1.3
					c-0.1,1.4,0.9,2.5,1.2,2.7c0.4,0.2,1.6,1.6,1.8,2.7c0.2,1.1,0.6,1.7,0.8,2.4c0.3,0.8,0,1.9,0,1.9s0.1,0.5,0.8,0.8
					c0.6,0.3,1.2-0.6,1.9-1.1c0.7-0.5,1.4-0.6,2.1-1.1c0.8-0.4,1.1-1.2,1.2-1.5s1.4-1.3,2.6-1.9s1.5-1.7,1.5-1.7s-0.1-2.1,0.1-2.8
					c0.2-0.8,2-2.7,2.5-3.4s0.2-2,0.2-2s0.9-0.7,1.9-1.3c1-0.6,1-1.3,1.5-3c0.5-1.7,2.6-2.5,3.2-2.9c0.5-0.4,1.3-1.7,1.1-2
					s-0.2-1-0.2-1.5c0.1-0.5-0.4-0.5-0.4-0.5s-2.6,0-3.1-0.5c-0.5-0.4-0.4-1.4-0.4-1.4l-3.8-5.4l0.1-2.3c0,0-0.2-0.3-0.6-0.5
					c-0.4-0.3,0.1-0.9,0.2-1.5c0.1-0.6,0-1.4-0.7-1.4s-1.6,0.1-2.5-0.3s-1.6-2.1-1.6-2.1L94,65.9c0,0,0,0.3,0,1
					c-0.1,0.7-0.4,0.8-1.4,0.3c-1-0.5-1.2-0.4-1.8-0.1c-0.7,0.4-1.5-0.4-2.5-0.8c-1-0.4-1.7,0.1-1.7,0.1s0.5-0.6,0.6-1.2
					c0.1-0.6-0.2-0.9-0.2-0.9s-1.7-0.8-2.9-1.8c-0.4-0.3-0.8-0.4-1.2-0.4C82.1,62.1,81.4,62.6,80.6,63.2"/>
			</defs>
			<clipPath id="SVGID_4_">
				<use xlink:href="#SVGID_3_"  style="overflow:visible;"/>
			</clipPath>
			<path class="st11" d="M79.9,71.2c-7,0-12.6,5.7-12.6,12.6S73,96.5,79.9,96.5c7,0,12.6-5.7,12.6-12.6
				C92.6,76.9,86.9,71.2,79.9,71.2 M79.9,97.5c-3.6,0-7.1-1.4-9.6-4c-2.6-2.6-4-6-4-9.6s1.4-7.1,4-9.6c2.6-2.6,6-4,9.6-4
				c3.6,0,7.1,1.4,9.6,4c2.6,2.6,4,6,4,9.6s-1.4,7.1-4,9.6S83.6,97.5,79.9,97.5"/>
		</g>
		<g>
			<defs>
				<path id="SVGID_5_" d="M80.6,63.2c-1.2,0.8-2.3,1-2.6,0.8c-0.3-0.2-0.7-0.7-0.9-0.4c-0.2,0.3-0.6,0.8-0.9,0.5
					c-0.3-0.3-0.9-0.5-0.9,0.3c0,0.8-0.5,1.4-1.3,1.7c-0.8,0.3-0.8,0.7-1.6,1.8c-0.7,1.1-1.5,1-2.9,1S68,69.7,68,69.7
					s-0.4,2-0.9,2.6c-0.5,0.6-1.5,0.1-1.5,0.1s0.6,0.5,1,1.4c0.4,0.9,0,1.3,0,1.3l0.3,0.4c0.3,0.4,0.3,3,0.3,3s0.6,0.5,1.7,1.7
					c1.1,1.2,1.2,2,1.3,2.2c0.1,0.2,2.5,3.6,2.5,3.6s0.6-0.7,0.9-0.8s0.8,0.3,0.8,0.3c0.1,0,2.4-1,2.5-0.8c0.4,0.5,2.6,1.9,3.3,1.8
					c0.7-0.1,2.1-1.5,3.1-1.2c1,0.3,0.7,1.5,0.7,1.5s0.6-0.4,0.9-0.4c0.3,0,0.2,0.5,0.4,0.6c0.2,0.1,0.9,0.8,1.1,1.2
					c0.3,0.4-0.8,1.4-0.9,1.8c-0.1,0.4,0.9,1.6,1.1,2.1c0.2,0.5,0,0.7,0,0.7s-0.9,1.2-1.6,2.3c-0.7,1-1,1.3-1,1.3
					c-0.1,1.4,0.9,2.5,1.2,2.7c0.4,0.2,1.6,1.6,1.8,2.7c0.2,1.1,0.6,1.7,0.8,2.4c0.3,0.8,0,1.9,0,1.9s0.1,0.5,0.8,0.8
					c0.6,0.3,1.2-0.6,1.9-1.1c0.7-0.5,1.4-0.6,2.1-1.1c0.8-0.4,1.1-1.2,1.2-1.5s1.4-1.3,2.6-1.9s1.5-1.7,1.5-1.7s-0.1-2.1,0.1-2.8
					c0.2-0.8,2-2.7,2.5-3.4s0.2-2,0.2-2s0.9-0.7,1.9-1.3c1-0.6,1-1.3,1.5-3c0.5-1.7,2.6-2.5,3.2-2.9c0.5-0.4,1.3-1.7,1.1-2
					s-0.2-1-0.2-1.5c0.1-0.5-0.4-0.5-0.4-0.5s-2.6,0-3.1-0.5c-0.5-0.4-0.4-1.4-0.4-1.4l-3.8-5.4l0.1-2.3c0,0-0.2-0.3-0.6-0.5
					c-0.4-0.3,0.1-0.9,0.2-1.5c0.1-0.6,0-1.4-0.7-1.4s-1.6,0.1-2.5-0.3s-1.6-2.1-1.6-2.1L94,65.9c0,0,0,0.3,0,1
					c-0.1,0.7-0.4,0.8-1.4,0.3c-1-0.5-1.2-0.4-1.8-0.1c-0.7,0.4-1.5-0.4-2.5-0.8c-1-0.4-1.7,0.1-1.7,0.1s0.5-0.6,0.6-1.2
					c0.1-0.6-0.2-0.9-0.2-0.9s-1.7-0.8-2.9-1.8c-0.4-0.3-0.8-0.4-1.2-0.4C82.1,62.1,81.4,62.6,80.6,63.2"/>
			</defs>
			<clipPath id="SVGID_6_">
				<use xlink:href="#SVGID_5_"  style="overflow:visible;"/>
			</clipPath>
			<path class="st12" d="M80.2,67.3c-9.1,0-16.6,7.4-16.6,16.6s7.4,16.6,16.6,16.6S96.7,93,96.7,83.9C96.7,74.8,89.3,67.3,80.2,67.3
				 M80.2,101.4c-2.4,0-4.7-0.5-6.8-1.4c-2.1-0.9-4-2.2-5.6-3.8c-1.6-1.6-2.9-3.5-3.8-5.6c-0.9-2.2-1.4-4.5-1.4-6.8
				c0-2.4,0.5-4.7,1.4-6.8c0.9-2.1,2.2-4,3.8-5.6c1.6-1.6,3.5-2.9,5.6-3.8c2.2-0.9,4.5-1.4,6.8-1.4s4.7,0.5,6.8,1.4
				c2.1,0.9,4,2.2,5.6,3.8c1.6,1.6,2.9,3.5,3.8,5.6c0.9,2.2,1.4,4.5,1.4,6.8s-0.5,4.7-1.4,6.8c-0.9,2.1-2.2,4-3.8,5.6
				c-1.6,1.6-3.5,2.9-5.6,3.8C84.8,101,82.5,101.4,80.2,101.4"/>
		</g>
		<g>
			<defs>
				<path id="SVGID_7_" d="M80.6,63.2c-1.2,0.8-2.3,1-2.6,0.8c-0.3-0.2-0.7-0.7-0.9-0.4c-0.2,0.3-0.6,0.8-0.9,0.5
					c-0.3-0.3-0.9-0.5-0.9,0.3c0,0.8-0.5,1.4-1.3,1.7c-0.8,0.3-0.8,0.7-1.6,1.8c-0.7,1.1-1.5,1-2.9,1S68,69.7,68,69.7
					s-0.4,2-0.9,2.6c-0.5,0.6-1.5,0.1-1.5,0.1s0.6,0.5,1,1.4c0.4,0.9,0,1.3,0,1.3l0.3,0.4c0.3,0.4,0.3,3,0.3,3s0.6,0.5,1.7,1.7
					c1.1,1.2,1.2,2,1.3,2.2c0.1,0.2,2.5,3.6,2.5,3.6s0.6-0.7,0.9-0.8s0.8,0.3,0.8,0.3c0.1,0,2.4-1,2.5-0.8c0.4,0.5,2.6,1.9,3.3,1.8
					c0.7-0.1,2.1-1.5,3.1-1.2c1,0.3,0.7,1.5,0.7,1.5s0.6-0.4,0.9-0.4c0.3,0,0.2,0.5,0.4,0.6c0.2,0.1,0.9,0.8,1.1,1.2
					c0.3,0.4-0.8,1.4-0.9,1.8c-0.1,0.4,0.9,1.6,1.1,2.1c0.2,0.5,0,0.7,0,0.7s-0.9,1.2-1.6,2.3c-0.7,1-1,1.3-1,1.3
					c-0.1,1.4,0.9,2.5,1.2,2.7c0.4,0.2,1.6,1.6,1.8,2.7c0.2,1.1,0.6,1.7,0.8,2.4c0.3,0.8,0,1.9,0,1.9s0.1,0.5,0.8,0.8
					c0.6,0.3,1.2-0.6,1.9-1.1c0.7-0.5,1.4-0.6,2.1-1.1c0.8-0.4,1.1-1.2,1.2-1.5s1.4-1.3,2.6-1.9s1.5-1.7,1.5-1.7s-0.1-2.1,0.1-2.8
					c0.2-0.8,2-2.7,2.5-3.4s0.2-2,0.2-2s0.9-0.7,1.9-1.3c1-0.6,1-1.3,1.5-3c0.5-1.7,2.6-2.5,3.2-2.9c0.5-0.4,1.3-1.7,1.1-2
					s-0.2-1-0.2-1.5c0.1-0.5-0.4-0.5-0.4-0.5s-2.6,0-3.1-0.5c-0.5-0.4-0.4-1.4-0.4-1.4l-3.8-5.4l0.1-2.3c0,0-0.2-0.3-0.6-0.5
					c-0.4-0.3,0.1-0.9,0.2-1.5c0.1-0.6,0-1.4-0.7-1.4s-1.6,0.1-2.5-0.3s-1.6-2.1-1.6-2.1L94,65.9c0,0,0,0.3,0,1
					c-0.1,0.7-0.4,0.8-1.4,0.3c-1-0.5-1.2-0.4-1.8-0.1c-0.7,0.4-1.5-0.4-2.5-0.8c-1-0.4-1.7,0.1-1.7,0.1s0.5-0.6,0.6-1.2
					c0.1-0.6-0.2-0.9-0.2-0.9s-1.7-0.8-2.9-1.8c-0.4-0.3-0.8-0.4-1.2-0.4C82.1,62.1,81.4,62.6,80.6,63.2"/>
			</defs>
			<clipPath id="SVGID_8_">
				<use xlink:href="#SVGID_7_"  style="overflow:visible;"/>
			</clipPath>
			<path class="st13" d="M80.2,63.9c-11,0-19.9,8.9-19.9,19.9s8.9,19.9,19.9,19.9s19.9-9,19.9-19.9S91.2,63.9,80.2,63.9 M80.2,104.8
				c-2.8,0-5.6-0.5-8.2-1.6c-2.5-1.1-4.7-2.6-6.7-4.5c-1.9-1.9-3.4-4.2-4.5-6.7c-1.1-2.6-1.6-5.3-1.6-8.2s0.5-5.6,1.6-8.2
				c1.1-2.5,2.6-4.7,4.5-6.7c1.9-1.9,4.2-3.4,6.7-4.5c2.6-1.1,5.3-1.6,8.2-1.6s5.6,0.5,8.2,1.6c2.5,1.1,4.7,2.6,6.7,4.5
				c1.9,1.9,3.4,4.2,4.5,6.7c1.1,2.6,1.6,5.3,1.6,8.2s-0.5,5.6-1.6,8.2c-1.1,2.5-2.6,4.7-4.5,6.7c-1.9,1.9-4.2,3.4-6.7,4.5
				C85.8,104.3,83,104.8,80.2,104.8"/>
		</g>
		<g>
			<defs>
				<path id="SVGID_9_" d="M80.6,63.2c-1.2,0.8-2.3,1-2.6,0.8c-0.3-0.2-0.7-0.7-0.9-0.4c-0.2,0.3-0.6,0.8-0.9,0.5
					c-0.3-0.3-0.9-0.5-0.9,0.3c0,0.8-0.5,1.4-1.3,1.7c-0.8,0.3-0.8,0.7-1.6,1.8c-0.7,1.1-1.5,1-2.9,1S68,69.7,68,69.7
					s-0.4,2-0.9,2.6c-0.5,0.6-1.5,0.1-1.5,0.1s0.6,0.5,1,1.4c0.4,0.9,0,1.3,0,1.3l0.3,0.4c0.3,0.4,0.3,3,0.3,3s0.6,0.5,1.7,1.7
					c1.1,1.2,1.2,2,1.3,2.2c0.1,0.2,2.5,3.6,2.5,3.6s0.6-0.7,0.9-0.8s0.8,0.3,0.8,0.3c0.1,0,2.4-1,2.5-0.8c0.4,0.5,2.6,1.9,3.3,1.8
					c0.7-0.1,2.1-1.5,3.1-1.2c1,0.3,0.7,1.5,0.7,1.5s0.6-0.4,0.9-0.4c0.3,0,0.2,0.5,0.4,0.6c0.2,0.1,0.9,0.8,1.1,1.2
					c0.3,0.4-0.8,1.4-0.9,1.8c-0.1,0.4,0.9,1.6,1.1,2.1c0.2,0.5,0,0.7,0,0.7s-0.9,1.2-1.6,2.3c-0.7,1-1,1.3-1,1.3
					c-0.1,1.4,0.9,2.5,1.2,2.7c0.4,0.2,1.6,1.6,1.8,2.7c0.2,1.1,0.6,1.7,0.8,2.4c0.3,0.8,0,1.9,0,1.9s0.1,0.5,0.8,0.8
					c0.6,0.3,1.2-0.6,1.9-1.1c0.7-0.5,1.4-0.6,2.1-1.1c0.8-0.4,1.1-1.2,1.2-1.5s1.4-1.3,2.6-1.9s1.5-1.7,1.5-1.7s-0.1-2.1,0.1-2.8
					c0.2-0.8,2-2.7,2.5-3.4s0.2-2,0.2-2s0.9-0.7,1.9-1.3c1-0.6,1-1.3,1.5-3c0.5-1.7,2.6-2.5,3.2-2.9c0.5-0.4,1.3-1.7,1.1-2
					s-0.2-1-0.2-1.5c0.1-0.5-0.4-0.5-0.4-0.5s-2.6,0-3.1-0.5c-0.5-0.4-0.4-1.4-0.4-1.4l-3.8-5.4l0.1-2.3c0,0-0.2-0.3-0.6-0.5
					c-0.4-0.3,0.1-0.9,0.2-1.5c0.1-0.6,0-1.4-0.7-1.4s-1.6,0.1-2.5-0.3s-1.6-2.1-1.6-2.1L94,65.9c0,0,0,0.3,0,1
					c-0.1,0.7-0.4,0.8-1.4,0.3c-1-0.5-1.2-0.4-1.8-0.1c-0.7,0.4-1.5-0.4-2.5-0.8c-1-0.4-1.7,0.1-1.7,0.1s0.5-0.6,0.6-1.2
					c0.1-0.6-0.2-0.9-0.2-0.9s-1.7-0.8-2.9-1.8c-0.4-0.3-0.8-0.4-1.2-0.4C82.1,62.1,81.4,62.6,80.6,63.2"/>
			</defs>
			<clipPath id="SVGID_10_">
				<use xlink:href="#SVGID_9_"  style="overflow:visible;"/>
			</clipPath>
			<path class="st14" d="M80.2,60.1c-13.1,0-23.8,10.6-23.8,23.8s10.6,23.8,23.8,23.8S104,97,104,83.9S93.3,60.1,80.2,60.1
				 M80.2,108.6c-3.3,0-6.6-0.7-9.6-1.9c-2.9-1.2-5.6-3-7.9-5.3c-2.3-2.3-4.1-4.9-5.3-7.9c-1.3-3-1.9-6.3-1.9-9.6
				c0-3.3,0.7-6.6,1.9-9.6c1.2-2.9,3-5.6,5.3-7.9c2.3-2.3,4.9-4.1,7.9-5.3c3-1.3,6.3-1.9,9.6-1.9c3.3,0,6.6,0.7,9.6,1.9
				c2.9,1.2,5.6,3,7.9,5.3c2.3,2.3,4.1,4.9,5.3,7.9c1.3,3,1.9,6.3,1.9,9.6c0,3.3-0.7,6.6-1.9,9.6c-1.2,2.9-3,5.6-5.3,7.9
				c-2.3,2.3-4.9,4.1-7.9,5.3C86.8,108,83.6,108.6,80.2,108.6"/>
		</g>
		<g>
			<defs>
				<path id="SVGID_11_" d="M80.6,63.2c-1.2,0.8-2.3,1-2.6,0.8c-0.3-0.2-0.7-0.7-0.9-0.4c-0.2,0.3-0.6,0.8-0.9,0.5
					c-0.3-0.3-0.9-0.5-0.9,0.3c0,0.8-0.5,1.4-1.3,1.7c-0.8,0.3-0.8,0.7-1.6,1.8c-0.7,1.1-1.5,1-2.9,1S68,69.7,68,69.7
					s-0.4,2-0.9,2.6c-0.5,0.6-1.5,0.1-1.5,0.1s0.6,0.5,1,1.4c0.4,0.9,0,1.3,0,1.3l0.3,0.4c0.3,0.4,0.3,3,0.3,3s0.6,0.5,1.7,1.7
					c1.1,1.2,1.2,2,1.3,2.2c0.1,0.2,2.5,3.6,2.5,3.6s0.6-0.7,0.9-0.8s0.8,0.3,0.8,0.3c0.1,0,2.4-1,2.5-0.8c0.4,0.5,2.6,1.9,3.3,1.8
					c0.7-0.1,2.1-1.5,3.1-1.2c1,0.3,0.7,1.5,0.7,1.5s0.6-0.4,0.9-0.4c0.3,0,0.2,0.5,0.4,0.6c0.2,0.1,0.9,0.8,1.1,1.2
					c0.3,0.4-0.8,1.4-0.9,1.8c-0.1,0.4,0.9,1.6,1.1,2.1c0.2,0.5,0,0.7,0,0.7s-0.9,1.2-1.6,2.3c-0.7,1-1,1.3-1,1.3
					c-0.1,1.4,0.9,2.5,1.2,2.7c0.4,0.2,1.6,1.6,1.8,2.7c0.2,1.1,0.6,1.7,0.8,2.4c0.3,0.8,0,1.9,0,1.9s0.1,0.5,0.8,0.8
					c0.6,0.3,1.2-0.6,1.9-1.1c0.7-0.5,1.4-0.6,2.1-1.1c0.8-0.4,1.1-1.2,1.2-1.5s1.4-1.3,2.6-1.9s1.5-1.7,1.5-1.7s-0.1-2.1,0.1-2.8
					c0.2-0.8,2-2.7,2.5-3.4s0.2-2,0.2-2s0.9-0.7,1.9-1.3c1-0.6,1-1.3,1.5-3c0.5-1.7,2.6-2.5,3.2-2.9c0.5-0.4,1.3-1.7,1.1-2
					s-0.2-1-0.2-1.5c0.1-0.5-0.4-0.5-0.4-0.5s-2.6,0-3.1-0.5c-0.5-0.4-0.4-1.4-0.4-1.4l-3.8-5.4l0.1-2.3c0,0-0.2-0.3-0.6-0.5
					c-0.4-0.3,0.1-0.9,0.2-1.5c0.1-0.6,0-1.4-0.7-1.4s-1.6,0.1-2.5-0.3s-1.6-2.1-1.6-2.1L94,65.9c0,0,0,0.3,0,1
					c-0.1,0.7-0.4,0.8-1.4,0.3c-1-0.5-1.2-0.4-1.8-0.1c-0.7,0.4-1.5-0.4-2.5-0.8c-1-0.4-1.7,0.1-1.7,0.1s0.5-0.6,0.6-1.2
					c0.1-0.6-0.2-0.9-0.2-0.9s-1.7-0.8-2.9-1.8c-0.4-0.3-0.8-0.4-1.2-0.4C82.1,62.1,81.4,62.6,80.6,63.2"/>
			</defs>
			<clipPath id="SVGID_12_">
				<use xlink:href="#SVGID_11_"  style="overflow:visible;"/>
			</clipPath>
			<path class="st15" d="M80.9,55.7c-15.5,0-28.2,12.6-28.2,28.2s12.6,28.2,28.2,28.2s28.2-12.6,28.2-28.2S96.5,55.7,80.9,55.7
				 M80.9,113c-3.9,0-7.8-0.8-11.3-2.3c-3.5-1.5-6.6-3.6-9.3-6.3c-2.7-2.7-4.8-5.8-6.3-9.3c-1.5-3.6-2.3-7.4-2.3-11.3
				s0.8-7.8,2.3-11.3c1.5-3.5,3.6-6.6,6.3-9.3c2.7-2.7,5.8-4.8,9.3-6.3c3.6-1.5,7.4-2.3,11.3-2.3s7.8,0.8,11.3,2.3
				c3.5,1.5,6.6,3.6,9.3,6.3c2.7,2.7,4.8,5.8,6.3,9.3c1.5,3.6,2.3,7.4,2.3,11.3s-0.8,7.8-2.3,11.3c-1.5,3.5-3.6,6.6-6.3,9.3
				c-2.7,2.7-5.8,4.8-9.3,6.3C88.7,112.3,84.9,113,80.9,113"/>
		</g>
	</g>
	<path class="st9" d="M85.4,87.3c-0.2-0.1-0.1-0.7-0.4-0.6c-0.3,0-0.9,0.4-0.9,0.4s0.3-1.2-0.7-1.5c-1-0.3-2.4,1.1-3.1,1.2
		s-2.9-1.2-3.3-1.8c-0.1-0.2-2.4,0.8-2.5,0.8c0,0-0.5-0.4-0.8-0.3c-0.3,0.1-0.9,0.8-0.9,0.8s-2.5-3.4-2.5-3.6
		c-0.1-0.2-0.2-1.1-1.3-2.2c-1.1-1.2-1.7-1.7-1.7-1.7s0-2.6-0.3-3c0,0,0.5,0.2,0.7,0c0.2-0.1,0.9-1.2,1-1.6c0.1-0.4,1.4-1.5,1.7-1.7
		c0.2-0.2,1.5-0.7,2-1.7c0.5-1,1.5-2.5,2.3-2.5c0.8,0,1.1,1.4,1.6,2.2s2.6,3.5,3.6,4c0,0,0.7,0.6,0.9,0.6c0.3,0,0.4-0.3,0.7-0.7
		c0.3-0.4,2-2.2,2.2-2.2c0.2,0,0.6,0.2,0.7,0.1c0.1-0.1,0.7-1,0.9-1c0.3,0.1,1.2,0.3,1.3,0.7c0.1,0.5,0.6,1.9,0.7,2.2
		c0.2,0.3,1.2,1.5,1.5,2c0.2,0.5,0.2,0.9,0.4,1c0.3,0,1.6-0.1,1.6,0.4c0,0.5-0.8,1.4-1.1,1.8c-0.3,0.4-1.7,2.3-1.6,2.6
		c0.1,0.3,0.7,0.8,0.6,1.2c0,0-0.1,0.8-0.5,1.1c-0.4,0.3-1,0.6-1,0.9s0,0.4-0.1,0.4c-0.1,0-0.6-0.4-0.8-0.4c-0.1,0-0.7,0-0.6,0.5
		c0,0.5,0.5,1.7,0.2,1.8C85.5,87.4,85.4,87.3,85.4,87.3"/>
	<path class="st16" d="M65.6,72.5c0,0,1,0.5,1.5-0.1c0.5-0.6,0.9-2.6,0.9-2.6s0.1-0.7,1.5-0.8c1.4-0.1,2.1,0.1,2.9-1
		c0.7-1.1,0.8-1.5,1.6-1.8c0.8-0.3,1.3-0.9,1.3-1.7s0.6-0.5,0.9-0.3c0.3,0.3,0.7-0.2,0.9-0.5c0.2-0.3,0.6,0.2,0.9,0.4
		c0.3,0.2,1.5,0,2.6-0.8c1.2-0.8,2.3-1.5,3.5-0.6c1.2,0.9,2.9,1.8,2.9,1.8s0.4,0.3,0.2,0.9s-0.6,1.2-0.6,1.2s0.7-0.5,1.7-0.1
		c1,0.4,1.9,1.1,2.5,0.8c0.7-0.4,0.8-0.4,1.8,0.1s1.3,0.4,1.4-0.3c0.1-0.7,0-1,0-1l1.5-0.8c0,0,0.7,1.7,1.6,2.1s1.8,0.3,2.5,0.3
		c0.7-0.1,0.8,0.8,0.7,1.4c-0.1,0.6-0.5,1.2-0.2,1.5c0.4,0.3,0.6,0.5,0.6,0.5l-0.1,2.3l3.8,5.4c0,0,0,0.9,0.4,1.4
		c0.5,0.4,3.1,0.5,3.1,0.5s0.5,0,0.4,0.5c-0.1,0.5,0,1.2,0.2,1.5c0.1,0.3-0.6,1.7-1.1,2s-2.6,1.2-3.2,2.9c-0.5,1.7-0.6,2.4-1.5,3
		s-1.9,1.3-1.9,1.3s0.3,1.3-0.2,2c-0.5,0.7-2.3,2.7-2.5,3.4c-0.2,0.8-0.1,2.8-0.1,2.8s-0.4,1.1-1.5,1.7c-1.1,0.7-2.5,1.6-2.6,1.9
		c-0.1,0.3-0.4,1.1-1.2,1.5c-0.8,0.4-1.5,0.6-2.1,1.1c-0.7,0.5-1.2,1.4-1.9,1.1c-0.6-0.3-0.8-0.8-0.8-0.8s0.3-1.1,0-1.9
		c-0.3-0.8-0.6-1.3-0.8-2.4s-1.5-2.5-1.8-2.7C84.9,99.1,84,98,84,96.6c0,0,0.3-0.3,1-1.3c0.7-1,1.6-2.3,1.6-2.3s0.2-0.2,0-0.7
		c-0.2-0.5-1.2-1.7-1.1-2.1c0.1-0.4,1.2-1.4,0.9-1.8c-0.2-0.4-0.9-1.1-1.1-1.2c-0.2-0.1-0.1-0.7-0.4-0.6c-0.3,0-0.9,0.4-0.9,0.4
		s0.3-1.2-0.7-1.5c-1-0.3-2.4,1.1-3.1,1.2c-0.7,0.1-2.9-1.2-3.3-1.8c-0.1-0.2-2.4,0.8-2.5,0.8c0,0-0.5-0.4-0.8-0.3
		c-0.3,0.1-0.9,0.8-0.9,0.8s-2.5-3.4-2.5-3.6c-0.1-0.2-0.2-1.1-1.3-2.2c-1.1-1.2-1.7-1.7-1.7-1.7s0-2.6-0.3-3l-0.3-0.4
		c0,0,0.4-0.4,0-1.3C66.2,73,65.6,72.5,65.6,72.5z"/>
	<path class="st7" d="M59,44.8c0,0-4.9,3.3-5.7,3.8c-0.8,0.5-0.7,1-0.7,1s0,3.2,0,4.2c0,1,0.8,0.4,0.8,0.4s4.6-3.7,5.1-4
		c0.4-0.3,0.9,0,1,0.7c0,0.8-0.2,1-0.2,1s-5.6,4.6-6.5,5.6c-1.3,1.4-2.3,0.4-2.3-0.4c0-0.5,0-7,0-7c0-1.5,0.7-2,0.7-2
		s6.4-4.6,7.3-5.1c0.9-0.5,1-0.1,1.1,0.2l-0.1,1C59.4,44.3,59.4,44.6,59,44.8"/>
	<path class="st7" d="M70.3,38.6c0-0.4-0.2-0.4-0.8-0.3c-0.5,0.1-4.2,1.3-5.3,1.8c-1.2,0.5-2.1,0.8-2.1,2S62,49,62,49.5
		c0,0.5,0.1,0.9,1.7-0.1c0,0,5.5-2.6,6.2-2.8c0.7-0.2,0.7-0.3,0.7-0.6c0-0.3,0-1.2,0-1.2s-0.1-0.4-0.6-0.2c-0.6,0.2-2.5,0.9-3.2,1.2
		c-0.7,0.3-1.8,0.7-1.8,0.7s-0.5,0.3-0.5-0.1c0-0.4,0-0.7,0-0.7s-0.1-0.3,0.3-0.5c0.4-0.1,4.1-1.7,4.5-1.9c0.3-0.1,0.5-0.1,0.5-0.4
		v-0.9c0-0.3,0-0.5-0.7-0.3c-0.7,0.3-4.3,1.6-4.3,1.6s-0.4,0.2-0.4-0.1s0-0.6,0-0.6s-0.2-0.4,0.4-0.6c0.6-0.2,5.1-2,5.1-2
		s0.5-0.2,0.5-0.4C70.2,39.4,70.3,38.6,70.3,38.6"/>
	<path class="st7" d="M81.8,41.2c0,0,0,0.9-1.2,1.1c-0.9,0.2-3.1,0.5-3.9,0.6c-0.2,0-0.4,0.1-0.4-0.2c0-0.3,0-3.5,0-3.5
		s0-0.3,0.5-0.4c0.5-0.1,3.6-0.5,3.6-0.5s1.5,0,1.5,0.9C81.9,40.1,81.8,41.2,81.8,41.2 M81.4,36.3c0,0-5.6,0.7-6.6,0.9
		c-1,0.2-0.9,0.9-0.9,0.9s0,6.4,0,7c0,0.5,0.3,0.4,0.7,0.4c1.5-0.3,5.6-0.9,7.2-1.2c2-0.4,2.1-2.2,2.1-2.2s0.2-2.1,0.2-4
		S81.4,36.3,81.4,36.3"/>
	<path class="st7" d="M95.8,38.2c0-0.2,0-0.6-1.5-0.9s-6.5-0.9-6.5-0.9s-1.2-0.4-1.2,0.7s0,6.4,0,6.4s-0.1,0.7,1.5,0.9
		c1.6,0.2,4.2,0.7,4.8,0.8c0.7,0.1,2.6,0.5,2.6,0.5s0.3,0.1,0.3-0.2c0-0.3,0-0.9,0-0.9S95.9,44.3,95,44c-0.9-0.3-2.7-0.8-4-1
		s-1.5,0-1.5,0s-0.3-0.1-0.3-0.4c0-0.2,0-0.9,0-0.9s0.1-0.2,0.8-0.1s4.7,0.8,4.7,0.8s0.7,0.3,0.7-0.2c0-0.4,0-1.3,0-1.3
		s0.1-0.4-0.8-0.5c-0.9-0.1-4.2-0.8-4.8-0.7c-0.5,0.1-0.7,0-0.7-0.2c0-0.2,0-1.1,0-1.1s0-0.4,0.5-0.3c0.4,0.1,3.7,0.8,4.3,1.1
		c0.7,0.3,1.4,0.4,1.6,0.2C95.8,39.2,95.8,38.2,95.8,38.2"/>
	<path class="st7" d="M116.2,55.6c-1.6-1.3-2.6-2.3-2.6-2.3s-0.4-0.2-0.4-1.1c0-0.9-0.1-3-0.1-3s0-1.3,1-0.8c1.1,0.5,2.6,1.8,3,2.5
		c0.4,0.7,0.4,1.3,0.4,2.4C117.6,54.3,117.8,57,116.2,55.6 M118.6,49.6c-1-1.1-3.1-3.1-5-4c-2.2-1-2.4,1-2.4,1s-0.2,3.8-0.1,5.4
		c0,1.7,0.7,2.1,0.7,2.1s1.1,1.2,3.9,3.7c1.9,1.7,3.7,0.7,3.7-1.5c0-1.2,0-2.1,0-2.9C119.4,51.6,119.7,50.7,118.6,49.6"/>
	<path class="st7" d="M107,45.2c0,0-1.7-1-2.6-1.4c-0.9-0.4-3.1-1.4-3.1-1.4c0-1.7,1-1.4,1-1.4s3,1.2,4,2
		C107.3,43.8,107,45.2,107,45.2 M108,42.2c-0.8-0.4-4.9-2.7-6.3-2.8c-1.4-0.1-2.6-0.1-2.6,1.4c-0.1,1.4,0.1,5.8,0.1,5.8
		s0,0.5,0.5,0.6c0.5,0.1,1.3,0.6,1.3-0.1c0-0.7,0.1-1.9,0.1-1.9s0-0.4,0.4-0.2c0.4,0.1,5.1,2.4,5.1,2.4s0.4,0.1,0.4,0.6s0,1.5,0,1.9
		s0,1,0.6,1.3c0.6,0.3,1.4,0.8,1.4-0.2c0,0,0-6.9,0-7.4C109.1,43.2,108.8,42.6,108,42.2"/>
	<path class="st7" d="M58,122.2c0,0-5.3-4.6-6.7-6.2c-0.5-0.6-0.8-0.3-0.8,0.4c0,0.7,0,9.9,0,9.9s0.2,0.4,1.1,1c0,0,5.4,3.9,5.9,4.1
		c0.5,0.2,0.7,0.4,0.8-0.1c0-0.5,0-1.4,0-1.4s-0.1-0.2-0.5-0.5c-0.4-0.3-5.1-3.7-5.1-3.7s-0.3-0.2-0.3-0.8c0.1-0.5,0.5-0.2,0.8,0
		c0.3,0.2,3.4,2.4,4,2.7c0.6,0.3,0.7,0.2,0.7-0.2s0-1.4,0-1.4s0.1-0.2-0.4-0.6c-0.5-0.3-4.1-2.9-4.4-3.1c-0.2-0.3-0.4-0.3-0.4-0.9
		s0.1-1,0.1-1s0.1-0.1,0.7,0.4c0.5,0.5,3.8,3,4.3,3.3s0.8,0.4,0.8-0.1c0-0.5,0-1.1,0-1.1S58.5,122.6,58,122.2"/>
	<path class="st7" d="M70.1,129.5c0-0.6,0-0.9-0.8-1.2c-0.8-0.3-2.1-0.8-3.5-1.4c-1.4-0.6-2.5-1.3-3-1.5c-0.4-0.2-1.5-0.1-1.5,1.1
		l0,5.7c0,0-0.2,0.6,0.6,1.2c1.5,1.2,5.2,2.5,7.1,3.1c0,0,0.8,0.4,0.8-0.1c0-0.6,0-2.2,0-2.2s0.1-0.2-0.7-0.3s-2.8-0.6-3.5-1
		c-0.8-0.4-2.2-0.8-2.2-2c0-1.2,0.5-2.4,1.5-2.1c1,0.3,3,1.6,3.7,1.9c0.7,0.2,1.4,0.5,1.5-0.1C70.1,130,70.1,129.5,70.1,129.5"/>
	<path class="st7" d="M85.8,131H87c0.3,0,0.3,0.6,0.3,0.6l0,4.4l1.8-5.1c0,0,0-0.4,0.6-0.4s1,0,1.5,0c0.4,0,0.4,0.3,0.7,1.1
		c0.3,0.8,1.8,3.6,1.8,3.6s0.1-4.1,0.1-4.5c0-0.4,0.6-0.7,1.1-0.7c0.4-0.1,1-0.3,1,0.4c0,0.8,0,5.9,0,5.9s0.2,1.2-1.2,1.4
		c-1.5,0.3-2.6,0.6-2.9-0.1c-0.5-1-1.6-3.3-1.6-3.3l-0.9,2.9c0,0-0.1,1-0.9,1.1c-0.8,0.1-2.2,0-2.2,0s-0.7,0.1-0.8-0.7
		c0-0.8,0-5.7,0-6.1C85.3,131,85.8,131,85.8,131"/>
	<path class="st7" d="M117.1,119.4l0-2.5c0,0-0.3-0.1-0.6,0.1c-0.3,0.3-5.2,4.7-5.2,4.7s-1,0.9-0.8,2.5c0.2,1.6,0.7,3.2,2.2,2
		c1.4-1.2,1.9-1.4,1.9-1.4s0.9-0.6,1.1,0.2c0.3,0.8-0.4,1.2-1,1.6c-0.6,0.4-3.7,2.6-3.8,2.7s-0.8,0.1-0.8,0.6c0,0.5,0.1,1.5,0.1,1.5
		s-0.1,0.5,0.7,0c0.7-0.5,4.6-2.7,5.9-4c1.2-1.3,1.5-1.5,1.5-3.2c0-1.7-0.3-2.5-1.4-2.5c-1,0-1.4,0.7-2,1.1l-1.1,0.9
		c0,0-0.5,0.4-0.7-0.1c-0.3-0.5-0.2-1.1,0.8-1.7C114.8,121.3,117.1,119.4,117.1,119.4"/>
	<path class="st7" d="M79.4,136.3c-1.4,0-5-0.2-5-1.9v-1.6c0-0.4,0-1.2,1.7-1c1.7,0.2,4.8,0.6,4.8,2.2
		C80.9,135.7,80.8,136.3,79.4,136.3 M75.1,129.9c-2.9-0.1-2.9,1.2-2.9,2v3.3c0,3.1,6,3.3,8.4,3.3c2.4,0,2.6-2.2,2.6-5.3
		S78,130,75.1,129.9"/>
	<path class="st7" d="M106.3,128.7c0,0-1.7,1.3-3,1.8s-3.3,1-3.3,1s-0.1-1.3,0.9-1.6c0.9-0.4,4-1.7,4.5-2.1
		C106.1,127.2,106.4,128,106.3,128.7 M108.3,127.7c0-1.5-0.9-2.4-1.8-2.3c-0.5,0.1-1.1,0.4-1.3,0.6c-0.6,0.6-4.3,2.1-5.7,2.4
		c-1.4,0.3-1.5,1.3-1.5,1.9s-0.3,6.2-0.3,6.2l2.1,0l0.2-3c0,0,2.1-0.6,2.9-0.8c0.8-0.2,2.2-0.8,2.8-1.1c0.6-0.3,0.6,0,0.6,0
		s0,0.8-0.1,1.5c-0.1,0.7,0.4,0.5,0.4,0.5s0.9-0.2,1.3-0.5c0.4-0.3,0.3-0.6,0.3-0.6L108.3,127.7z"/>
</g>
<g id="Layer_3">
	<rect x="144" y="56" class="st17" width="216" height="87"/>
	<text transform="matrix(1 0 0 1 144 110.3193)" class="st7 st18 st19">RAHIS</text>
</g>
</svg>
